<svg xmlns="http://www.w3.org/2000/svg" width="60" height="60" viewBox="0 0 60 60"><defs><style>.a{fill:none;}.b{fill:#ff4343;}.c{fill:#fff;}</style></defs><rect class="a" width="60" height="60"/><g transform="translate(7.553 7.553)"><circle class="b" cx="22.447" cy="22.447" r="22.447"/><path class="c" d="M31.008,7.91H9.048A2.5,2.5,0,0,0,6.57,10.428V25.887A2.5,2.5,0,0,0,9.048,28.4H31.008a2.5,2.5,0,0,0,2.478-2.518V10.478a2.539,2.539,0,0,0-.708-1.813A2.459,2.459,0,0,0,31.008,7.91Zm0,2.518v2.241c-1.165.982-3.073,2.518-7.088,5.715-.892.7-2.677,2.518-3.891,2.392s-3-1.687-3.891-2.392c-4.015-3.223-6.023-4.733-7.088-5.715v-2.19ZM9.048,25.937V15.866l5.527,4.557a9.867,9.867,0,0,0,5.453,2.946,9.867,9.867,0,0,0,5.453-2.946l5.527-4.456V26.038Z" transform="translate(2.418 4.24)"/></g></svg>