<svg xmlns="http://www.w3.org/2000/svg" width="108.395" height="13.401" viewBox="0 0 108.395 13.401"><defs><style>.a{fill:#d41868;}</style></defs><path class="a" d="M7.178-67.722a2.852,2.852,0,0,0,.656-2.033A2.105,2.105,0,0,0,7-71.648,4.792,4.792,0,0,0,4.4-72.2H2.18v5.173H4.712a3.375,3.375,0,0,0,2.466-.693M0-61.284V-72.409s.019-.188.039-.27a2.106,2.106,0,0,1,.106-.335,3.459,3.459,0,0,1,.268-.45A2.837,2.837,0,0,1,.767-73.8a3.063,3.063,0,0,1,.483-.265,2.84,2.84,0,0,1,.347-.1,1.676,1.676,0,0,1,.278-.017H4.434a6.637,6.637,0,0,1,4.286,1.127,4.271,4.271,0,0,1,1.349,3.473,4.116,4.116,0,0,1-1.377,3.436,6.75,6.75,0,0,1-4.221,1.09H2.18v1.928l0,.069s-.019.189-.039.272a2.2,2.2,0,0,1-.106.334A3.521,3.521,0,0,1,1.765-62a2.852,2.852,0,0,1-.354.338,3.1,3.1,0,0,1-.483.265,2.969,2.969,0,0,1-.348.1,1.751,1.751,0,0,1-.278.017Z" transform="translate(0 74.518)"/><path class="a" d="M76.948-72.726A4.347,4.347,0,0,0,73.7-74.1a4.346,4.346,0,0,0-3.253,1.371A4.613,4.613,0,0,0,69.117-69.4a4.611,4.611,0,0,0,1.325,3.327A4.346,4.346,0,0,0,73.7-64.7a4.347,4.347,0,0,0,3.253-1.372A4.612,4.612,0,0,0,78.273-69.4a4.614,4.614,0,0,0-1.325-3.327m1.6,8.109A6.68,6.68,0,0,1,73.7-62.7a6.68,6.68,0,0,1-4.856-1.919A6.411,6.411,0,0,1,66.874-69.4a6.411,6.411,0,0,1,1.965-4.782A6.682,6.682,0,0,1,73.7-76.1a6.682,6.682,0,0,1,4.856,1.918A6.412,6.412,0,0,1,80.516-69.4a6.412,6.412,0,0,1-1.964,4.782" transform="translate(-55.098 76.099)"/><path class="a" d="M167.383-67.722a2.85,2.85,0,0,0,.656-2.033,2.106,2.106,0,0,0-.832-1.894,4.792,4.792,0,0,0-2.6-.554h-2.217v5.173h2.531a3.375,3.375,0,0,0,2.466-.693m-7.177,6.438V-72.409s.019-.188.039-.27a2.137,2.137,0,0,1,.106-.335,3.543,3.543,0,0,1,.268-.45,2.892,2.892,0,0,1,.355-.338,3.066,3.066,0,0,1,.482-.265,2.869,2.869,0,0,1,.348-.1,1.675,1.675,0,0,1,.278-.017h2.558a6.637,6.637,0,0,1,4.286,1.127,4.273,4.273,0,0,1,1.349,3.473,4.116,4.116,0,0,1-1.377,3.436,6.749,6.749,0,0,1-4.222,1.09h-2.291v1.928l0,.069s-.018.189-.039.272a2.122,2.122,0,0,1-.106.334,3.485,3.485,0,0,1-.268.449,2.8,2.8,0,0,1-.354.338,3.115,3.115,0,0,1-.483.265,2.96,2.96,0,0,1-.348.1,1.752,1.752,0,0,1-.278.017Z" transform="translate(-131.994 74.518)"/><path class="a" d="M233.689-63.357h3.434a3.638,3.638,0,0,0,1.838-.379,1.525,1.525,0,0,0,.637-1.432q0-1.717-2.753-1.718h-3.156Zm0-5.549,2.789.007q2.365,0,2.364-1.607a1.519,1.519,0,0,0-.572-1.33,3.1,3.1,0,0,0-1.774-.406l-2.807.005Zm-.4,7.559s-.188-.018-.271-.039a2.109,2.109,0,0,1-.334-.105,3.553,3.553,0,0,1-.45-.268,2.894,2.894,0,0,1-.337-.354,3.069,3.069,0,0,1-.265-.484,2.741,2.741,0,0,1-.1-.347c-.02-.093-.04-.278-.04-.278v-9.015l.022-.248s.019-.189.039-.272a2.172,2.172,0,0,1,.106-.334,3.455,3.455,0,0,1,.268-.45,2.9,2.9,0,0,1,.353-.338,3.015,3.015,0,0,1,.484-.264,2.833,2.833,0,0,1,.347-.1,1.7,1.7,0,0,1,.278-.017h3.158a7.259,7.259,0,0,1,2.263.314,3.112,3.112,0,0,1,1.413.85,3.3,3.3,0,0,1,.887,2.254,2.666,2.666,0,0,1-.961,2.254,4.179,4.179,0,0,1-.481.323c-.086.044-.24.114-.462.213a3.384,3.384,0,0,1,1.912,1.081,3.011,3.011,0,0,1,.711,2.041,3.469,3.469,0,0,1-.923,2.383,4.86,4.86,0,0,1-3.732,1.2h-3.638Z" transform="translate(-190.729 74.581)"/><path class="a" d="M314.74-61.355h-7.248s-.189-.019-.271-.039a2.67,2.67,0,0,1-.366-.126,3.632,3.632,0,0,1-.45-.268,2.892,2.892,0,0,1-.337-.354,3,3,0,0,1-.265-.484,2.755,2.755,0,0,1-.1-.347,1.784,1.784,0,0,1-.017-.278V-72.42l0-.064s.019-.189.039-.273a2.168,2.168,0,0,1,.106-.334,3.365,3.365,0,0,1,.268-.449,2.839,2.839,0,0,1,.353-.338,3.127,3.127,0,0,1,.484-.265,3,3,0,0,1,.347-.1c.093-.019.255-.032.255-.032h7.205v.032l-.022.248s-.019.189-.039.272a2.187,2.187,0,0,1-.106.335,3.519,3.519,0,0,1-.268.45,2.917,2.917,0,0,1-.353.338,2.994,2.994,0,0,1-.484.264,2.845,2.845,0,0,1-.347.1,1.233,1.233,0,0,1-.233.017h-5.03V-68.8h6.173l-.009.176s-.018.189-.039.271a2.073,2.073,0,0,1-.106.335,3.488,3.488,0,0,1-.268.45,2.829,2.829,0,0,1-.354.338,3.082,3.082,0,0,1-.483.264,2.911,2.911,0,0,1-.347.1,1,1,0,0,1-.135.014c-.057,0-.165,0-.165,0H307.87v3.455H312.8l.235.01a1.54,1.54,0,0,1,.185.033,2.539,2.539,0,0,1,.357.125,3.48,3.48,0,0,1,.45.268,2.9,2.9,0,0,1,.338.354,3.1,3.1,0,0,1,.265.483,3.045,3.045,0,0,1,.1.347,1.78,1.78,0,0,1,.017.278Z" transform="translate(-251.858 74.592)"/><path class="a" d="M382.25-61.324h-8.061V-74.233h.132l.273,0s.189.019.271.039a2.159,2.159,0,0,1,.334.106,3.576,3.576,0,0,1,.45.268,2.951,2.951,0,0,1,.338.354,3.024,3.024,0,0,1,.264.483,3,3,0,0,1,.1.347.707.707,0,0,1,.016.162l.006.126V-63.4h3.792l.107-.005.195.017a2.731,2.731,0,0,1,.271.039,2.044,2.044,0,0,1,.334.106,3.458,3.458,0,0,1,.451.268,2.868,2.868,0,0,1,.338.354,3.093,3.093,0,0,1,.265.483,2.788,2.788,0,0,1,.1.347,2.269,2.269,0,0,1,.032.242Z" transform="translate(-308.295 74.561)"/><path class="a" d="M441.344-61.268a1.082,1.082,0,0,1-.215-.021,1.563,1.563,0,0,1-.225-.044,1.815,1.815,0,0,1-.327-.123,3.019,3.019,0,0,1-.357-.221,2.9,2.9,0,0,1-.366-.371c-.08-.106-.2-.322-.2-.322l-.806-1.828-.885-2.009-2.341-5.345-2.446,5.584-.779,1.769-.779,1.768s-.148.272-.21.352a2.787,2.787,0,0,1-.434.424,2.576,2.576,0,0,1-.427.235,1.948,1.948,0,0,1-.3.1,1.648,1.648,0,0,1-.371.049c-.106,0-.756,0-.756,0h-.332l5.3-12.022.049-.106.133-.156.13-.153s.146-.12.219-.164a2.153,2.153,0,0,1,.311-.162,3.5,3.5,0,0,1,.508-.129,3,3,0,0,1,.489.012,2.4,2.4,0,0,1,.47.153,1.532,1.532,0,0,1,.373.238,1.019,1.019,0,0,0,.151.131l.069.078s.067.086.107.149.1.169.1.169l5.271,11.962h-1.113" transform="translate(-353.273 74.505)"/><path class="a" d="M514.139-6.328a.549.549,0,0,1-.162-.4.535.535,0,0,1,.162-.394.538.538,0,0,1,.394-.162.554.554,0,0,1,.4.162.531.531,0,0,1,.164.394.544.544,0,0,1-.164.4.546.546,0,0,1-.4.165.531.531,0,0,1-.394-.165" transform="translate(-423.466 19.4)"/><path class="a" d="M551.622-21.051a1.194,1.194,0,0,0,.892.358,1.2,1.2,0,0,0,.892-.358,1.274,1.274,0,0,0,.351-.929,1.276,1.276,0,0,0-.351-.929,1.2,1.2,0,0,0-.892-.359,1.194,1.194,0,0,0-.892.359,1.272,1.272,0,0,0-.352.929,1.271,1.271,0,0,0,.352.929m2.372.51a2.016,2.016,0,0,1-1.48.588,2.015,2.015,0,0,1-1.48-.588,1.951,1.951,0,0,1-.592-1.439,1.952,1.952,0,0,1,.592-1.44,2.016,2.016,0,0,1,1.48-.588,2.017,2.017,0,0,1,1.48.588,1.954,1.954,0,0,1,.591,1.44,1.953,1.953,0,0,1-.591,1.439" transform="translate(-453.508 33.181)"/><path class="a" d="M580.182-22.159v2.134h-.832v-3.942h.832v.719a1.322,1.322,0,0,1,.539-.571,1.526,1.526,0,0,1,.776-.208,1.255,1.255,0,0,1,1.269.771,1.776,1.776,0,0,1,1.463-.771,1.471,1.471,0,0,1,1.081.408,1.584,1.584,0,0,1,.412,1.178v2.416h-.832v-2.164q0-1.09-.906-1.09a1.1,1.1,0,0,0-.739.27,1.026,1.026,0,0,0-.331.789v2.194h-.832v-2.164a1.363,1.363,0,0,0-.2-.826.742.742,0,0,0-.631-.264,1.089,1.089,0,0,0-.75.285,1.059,1.059,0,0,0-.32.834" transform="translate(-477.327 33.197)"/><path class="a" d="M527.851-20.016a2,2,0,0,1-1.422-.562,1.926,1.926,0,0,1-.6-1.47,1.915,1.915,0,0,1,.621-1.478,2.162,2.162,0,0,1,1.516-.57,2.057,2.057,0,0,1,1.511.618l-.491.6a1.585,1.585,0,0,0-1.035-.446,1.3,1.3,0,0,0-.9.346,1.149,1.149,0,0,0-.384.894,1.261,1.261,0,0,0,.38.927,1.267,1.267,0,0,0,.934.38,1.453,1.453,0,0,0,1.046-.507l.491.536a2.28,2.28,0,0,1-1.668.73" transform="translate(-433.234 33.254)"/></svg>