<svg xmlns="http://www.w3.org/2000/svg" width="60" height="60" viewBox="0 0 60 60"><defs><style>.a{fill:none;}.b{fill:#0083ff;}.c{fill:#fff;}</style></defs><rect class="a" width="60" height="60"/><g transform="translate(7.553 7.553)"><circle class="b" cx="22.447" cy="22.447" r="22.447"/><path class="c" d="M19.573,6.885a12.381,12.381,0,0,0-12.7,12.381,11.985,11.985,0,0,0,3.987,9.088c.421.4.347.619.4,3a1.015,1.015,0,0,0,1.065.966.99.99,0,0,0,.371,0c2.7-1.189,2.748-1.288,3.194-1.164A12.5,12.5,0,0,0,32.226,19.341,12.183,12.183,0,0,0,19.573,6.886Zm7.676,9.459L23.51,22.263a1.931,1.931,0,0,1-2.649.594h0l-2.971-2.2a.718.718,0,0,0-.916,0l-4.135,2.922a.594.594,0,0,1-.867-.792l3.739-5.918a1.907,1.907,0,0,1,2.625-.594h.124L21.43,18.5a.792.792,0,0,0,.916,0l4.011-3.046a.6.6,0,1,1,.891.792Z" transform="translate(2.873 2.883)"/></g></svg>