<svg xmlns="http://www.w3.org/2000/svg" width="60" height="60" viewBox="0 0 60 60"><defs><style>.a{fill:none;}.b{fill:#3b5998;}.c{fill:#fff;}</style></defs><rect class="a" width="60" height="60"/><g transform="translate(7.553 7.553)"><path class="b" d="M25.447,3A22.447,22.447,0,1,0,47.893,25.447,22.447,22.447,0,0,0,25.447,3Zm7.482,13.119H30.734a2.494,2.494,0,0,0-2.793,2.743V22.13H32.8l-.773,4.988h-4.09V39.339H22.4V27.193H17.964V22.2H22.4V18.289a6.185,6.185,0,0,1,6.609-6.809,26.213,26.213,0,0,1,3.916.349Z" transform="translate(-3 -3)"/><path class="c" d="M13.482,13.179V17H9v4.959h4.482v12.15h5.589V22.032H23.2l.781-4.959h-4.91V13.75a2.458,2.458,0,0,1,.762-2.07,2.543,2.543,0,0,1,2.134-.657h2.14V6.757a26.859,26.859,0,0,0-3.953-.347,6.3,6.3,0,0,0-4.942,1.849A6.093,6.093,0,0,0,13.482,13.179Z" transform="translate(5.893 2.15)"/></g></svg>