<svg xmlns="http://www.w3.org/2000/svg" width="60" height="60" viewBox="0 0 60 60"><defs><style>.a{fill:none;}.b{fill:#03c302;}.c{fill:#fff;}</style></defs><rect class="a" width="60" height="60"/><g transform="translate(7.553 7.553)"><circle class="b" cx="22.447" cy="22.447" r="22.447"/><path class="c" d="M21.776,16.383v3.835a.173.173,0,0,1-.173.173h-.618a.173.173,0,0,1-.148,0l-1.757-2.474v2.276a.173.173,0,0,1-.173.173h-.594a.173.173,0,0,1-.173-.173v-3.81a.173.173,0,0,1,.173-.148h.594a.173.173,0,0,1,.148,0l1.757,2.35V16.308a.173.173,0,0,1,.173-.148h.668a.173.173,0,0,1,.2.148Zm-4.428-.173H16.7a.173.173,0,0,0-.173.173v3.835a.173.173,0,0,0,.173.173h.618a.173.173,0,0,0,.173-.173V16.383a.2.2,0,0,0-.173-.173Zm-1.484,3.216H14.23V16.383a.173.173,0,0,0-.173-.173h-.643a.173.173,0,0,0-.173.173v3.958h2.6a.173.173,0,0,0,.173-.173v-.618a.173.173,0,0,0-.173-.173Zm9.129-3.216H22.518a.173.173,0,0,0-.173.173v3.835a.173.173,0,0,0,.173.173h2.474a.173.173,0,0,0,.173-.173V19.6a.173.173,0,0,0-.173-.173H23.335v-.643h1.658a.173.173,0,0,0,.173-.173v-.618a.173.173,0,0,0-.173-.173H23.335v-.643h1.658A.173.173,0,0,0,25.165,17v-.618a.2.2,0,0,0-.173-.173Zm6.234-4.7V26.872a4.354,4.354,0,0,1-4.379,4.354H11.484A4.354,4.354,0,0,1,7.13,26.848V11.484A4.354,4.354,0,0,1,11.509,7.13H26.872a4.354,4.354,0,0,1,4.354,4.379Zm-3.315,6.605c0-3.934-3.934-7.125-8.783-7.125s-8.758,3.241-8.758,7.125a7.719,7.719,0,0,0,7.422,7.026c1.039.223.915.618.693,1.979,0,.223-.173.866.742.495a28.129,28.129,0,0,0,6.9-5.121A6.234,6.234,0,0,0,27.911,18.114Z" transform="translate(3.268 3.268)"/></g></svg>