<svg xmlns="http://www.w3.org/2000/svg" width="57.208" height="25.923" viewBox="0 0 57.208 25.923"><defs><style>.a{fill:#f39422;}</style></defs><g transform="translate(0 0)"><path class="a" d="M65.058-216.335c.023-.026.048-.05.071-.077.944-1.076,1.876-2.163,2.835-3.226q2.189-2.429,4.513-4.732c.244-.242.492-.48.739-.719l.031-.029c.268-.228.469-.172.564.168a4.71,4.71,0,0,1,.17,1.1,13.272,13.272,0,0,1-.206,2.673c-.054.327-.13.651-.206.973a1.51,1.51,0,0,1-.142.338.823.823,0,0,1-.632.411,8.1,8.1,0,0,0-3.586,1.726,20.208,20.208,0,0,0-2.6,2.378c-.552.607-1.089,1.229-1.617,1.857a2.183,2.183,0,0,0-.284.533c-.412.931-.843,1.856-1.219,2.8-.319.8-.572,1.627-.855,2.442a.754.754,0,0,1-.057.141.187.187,0,0,1-.267.089,1.168,1.168,0,0,1-.328-.257,1.9,1.9,0,0,1-.378-1.021,5.126,5.126,0,0,1,.277-2.143,35.224,35.224,0,0,1,1.284-3.347.763.763,0,0,0,.045-.3c-.005-.463-.02-.926-.029-1.388-.011-.535-.024-1.068-.03-1.6,0-.355,0-.712.007-1.068,0-.2,0-.4.005-.595.016-.716.021-1.431.053-2.146.029-.656.073-1.312.129-1.967.039-.456.1-.911.167-1.364.046-.309.239-.386.512-.23a2.027,2.027,0,0,1,.931,1.3,6.915,6.915,0,0,1,.194,1.988c-.016.853-.045,1.706-.066,2.558s-.042,1.733-.063,2.6c0,.041,0,.083.005.124l.031.01" transform="translate(-54.495 225.256)"/><path class="a" d="M31.071-61.543l-2.687.091-1.831.063-1.863.063-1.9.067-3.607.134q-1.089.04-2.178.084-1.316.052-2.632.109-.969.04-1.938.086-1.358.062-2.717.129-.851.039-1.7.086-1.325.074-2.65.153-.844.05-1.688.109-1.135.081-2.269.171c-.313.024-.625.059-.939.078a1.678,1.678,0,0,1-.355-.029C.08-60.155.041-60.2,0-60.223c.028-.04.047-.1.086-.116a5.526,5.526,0,0,1,.621-.3,10.3,10.3,0,0,1,2.033-.475q1.034-.151,2.074-.263c.722-.077,1.445-.135,2.168-.193.671-.052,1.341-.094,2.011-.136q1.245-.08,2.488-.154c.616-.037,1.233-.071,1.85-.1.761-.042,1.522-.085,2.283-.124.509-.027,1.017-.047,1.526-.072l2.544-.123c.555-.026,1.111-.046,1.667-.071.762-.034,1.523-.07,2.285-.1.4-.017.8-.031,1.2-.047l2.675-.107c.495-.018.989-.033,1.484-.051l2.328-.084,1.82-.064,2.817-.09,2.068-.063c.86-.025,1.719-.053,2.58-.075.65-.016,1.3-.029,1.95-.034.3,0,.6.009.9.029a.676.676,0,0,1,.213.1.885.885,0,0,1-.171.153,4.917,4.917,0,0,1-1.409.448c-.628.115-1.257.231-1.892.3-.958.1-1.92.179-2.882.246-.772.055-1.544.08-2.317.112s-1.538.059-2.308.089l-1.623.063Z" transform="translate(0 81.739)"/><path class="a" d="M443.367-209.955a1.386,1.386,0,0,0-1.62-1.4.171.171,0,0,1-.214-.111,1.109,1.109,0,0,0-1.257-.558.178.178,0,0,1-.244-.1,1.369,1.369,0,0,0-1.79-.545,1.491,1.491,0,0,0-.269,2.543.135.135,0,0,1,.049.2c-.138.3-.261.611-.4.915a.457.457,0,0,0-.007.366,1.342,1.342,0,0,0,.34.5,3.5,3.5,0,0,0,1.883.934,1.575,1.575,0,0,0,.782-.033c.122-.041.25-.085.279-.24,0-.012.016-.022.024-.033a1.746,1.746,0,0,0,.173-.241c.1-.206.2-.417.289-.629.039-.1.082-.128.19-.1a1.489,1.489,0,0,0,1.785-1.464m-4.543-3.319a1.836,1.836,0,0,1,1.453.679.171.171,0,0,0,.156.068,1.617,1.617,0,0,1,1.38.617.172.172,0,0,0,.113.058,1.856,1.856,0,0,1,1.824,1.32,1.985,1.985,0,0,1-.76,2.2,1.862,1.862,0,0,1-1.173.346.12.12,0,0,0-.13.081c-.124.239-.247.48-.385.712a.974.974,0,0,1-.692.44,2.624,2.624,0,0,1-1.264-.087,3.788,3.788,0,0,1-1.848-1.118,1.336,1.336,0,0,1-.372-.778.954.954,0,0,1,.045-.371c.082-.239.186-.469.288-.7a.133.133,0,0,0-.024-.169,1.868,1.868,0,0,1-.412-1.955,1.887,1.887,0,0,1,1.534-1.311,2.308,2.308,0,0,1,.268-.026" transform="translate(-386.626 214.653)"/><path class="a" d="M450.127-180.73a2.351,2.351,0,0,1,.659-1.452.68.68,0,0,1,0,.147,3.474,3.474,0,0,1-.549,1.2.914.914,0,0,1-.108.1" transform="translate(-398.318 187.139)"/><path class="a" d="M463.018-174.912a2.3,2.3,0,0,1,.663-1.45,1.072,1.072,0,0,1-.016.193,3.662,3.662,0,0,1-.513,1.116,1.3,1.3,0,0,1-.134.142" transform="translate(-409.725 181.989)"/><path class="a" d="M128.535-142.371a23.418,23.418,0,0,1-1.757,3.706,7.71,7.71,0,0,1-.933,1.316,1.955,1.955,0,0,1-.329.277c-.1.067-.167.039-.217-.07a1.1,1.1,0,0,1-.059-.607,5.542,5.542,0,0,1,.757-2.084,7.744,7.744,0,0,1,2.46-2.613c.024-.016.049-.03.074-.045a.186.186,0,0,1,.042,0c-.014.047-.023.084-.037.12m2.617-2.093c-.032.02-.066.036-.129.07.019-.064.026-.1.038-.129.063-.165.129-.33.193-.495.7-1.808,1.5-3.579,2.3-5.346a4.218,4.218,0,0,0,.455-1.549,2.1,2.1,0,0,0-.261-1.22c-.189-.314-.427-.322-.631-.021a5,5,0,0,0-.343.577c-.5.995-1,1.99-1.483,2.991a31.032,31.032,0,0,1-1.512,2.852,8.356,8.356,0,0,1-1.059,1.425,2.085,2.085,0,0,1-.851.6.5.5,0,0,1-.744-.447c-.006-.036-.007-.071-.01-.108a3.11,3.11,0,0,1,.184-1.17A16.838,16.838,0,0,1,128.415-149c.278-.532.572-1.055.835-1.594a2.94,2.94,0,0,0,.339-1.5,1.6,1.6,0,0,0-.428-1,.305.305,0,0,0-.5.022.886.886,0,0,0-.087.124c-.422.724-.867,1.436-1.259,2.176a19.413,19.413,0,0,0-1.446,3.431,5.135,5.135,0,0,0-.264,1.8.251.251,0,0,1-.054.165c-.158.178-.317.356-.489.521a1.482,1.482,0,0,1-.581.348.776.776,0,0,1-.994-.446,1.61,1.61,0,0,1-.112-.838,3.552,3.552,0,0,1,.432-1.32c.414-.774.846-1.539,1.257-2.314a4.754,4.754,0,0,0,.656-1.889,2.638,2.638,0,0,0-.1-1.04.813.813,0,0,0-1.152-.579,4.576,4.576,0,0,0-1.239.684,11.611,11.611,0,0,0-1.484,1.282c-.026.026-.056.047-.092.077,0-.267.016-.515,0-.762a1.892,1.892,0,0,0-.352-.965.863.863,0,0,0-1.008-.354,3.407,3.407,0,0,0-1.013.532,10.414,10.414,0,0,0-1.929,1.785.36.36,0,0,0-.041.1l-.051-.044a.571.571,0,0,1,.011-.069,3.993,3.993,0,0,0,.143-1.092,2.032,2.032,0,0,0-.334-1.148c-.147-.213-.336-.208-.472.011s-.251.414-.371.625a40.7,40.7,0,0,0-2.641,5.568,6.091,6.091,0,0,0-.371,1.377.67.67,0,0,1-.061.3,2.419,2.419,0,0,1-.9.769.8.8,0,0,1-1.177-.54,2.147,2.147,0,0,1,.04-1.185,5.319,5.319,0,0,1,.513-1.181c.381-.71.778-1.411,1.157-2.122a4.273,4.273,0,0,0,.581-1.789,2.377,2.377,0,0,0-.163-1.115.747.747,0,0,0-.954-.48,3.406,3.406,0,0,0-.765.323,9.983,9.983,0,0,0-2.089,1.665,1.429,1.429,0,0,1-.112.093.6.6,0,0,1-.005-.066,2.414,2.414,0,0,0-.008-.83,1.761,1.761,0,0,0-.467-.983.815.815,0,0,0-.827-.219,3.159,3.159,0,0,0-.966.48,10.507,10.507,0,0,0-2.036,1.86c-.019.022-.039.04-.06.06a.139.139,0,0,1-.009-.084c.047-.3.114-.589.136-.886a2.068,2.068,0,0,0-.277-1.271c-.195-.318-.377-.318-.566,0a39.689,39.689,0,0,0-2.91,5.977,5.793,5.793,0,0,0-.469,1.949.15.15,0,0,1-.037.1,2.235,2.235,0,0,1-.931.633.669.669,0,0,1-.93-.685,3,3,0,0,1,.144-1.013,10.4,10.4,0,0,1,.743-1.707c.428-.837.865-1.669,1.288-2.507a3.237,3.237,0,0,0,.362-1.675,1.911,1.911,0,0,0-.31-1c-.218-.311-.407-.317-.615,0a9.559,9.559,0,0,0-.529.9c-.431.851-.841,1.711-1.27,2.564a28.843,28.843,0,0,1-1.877,3.282,8.117,8.117,0,0,1-1.057,1.3,1.774,1.774,0,0,1-.924.554.438.438,0,0,1-.513-.265,1.13,1.13,0,0,1-.088-.529,3.749,3.749,0,0,1,.27-1.2,22.559,22.559,0,0,1,1.577-3.339,4.506,4.506,0,0,0,.622-1.675,1.965,1.965,0,0,0-.289-1.391.372.372,0,0,0-.683,0,26.853,26.853,0,0,0-1.52,2.652,18.465,18.465,0,0,0-1.309,3.229,4.336,4.336,0,0,0-.167,1.862,1.737,1.737,0,0,0,.408.952,1.623,1.623,0,0,0,1.5.453,2.866,2.866,0,0,0,1.4-.654,6.521,6.521,0,0,0,1.24-1.327,1.493,1.493,0,0,1,.1-.12c.011.2.019.377.035.548a1.633,1.633,0,0,0,1.188,1.464,2.639,2.639,0,0,0,1.318.038,3.185,3.185,0,0,0,1.006-.42c.064-.039.1-.039.151.024a1.675,1.675,0,0,0,.25.254.234.234,0,0,0,.4-.1c.018-.04.035-.08.051-.12.146-.376.288-.755.443-1.129.069-.166.164-.32.245-.482.123-.248.251-.5.362-.749.057-.131.062-.285.123-.414a14.853,14.853,0,0,1,1.148-2.025,11.593,11.593,0,0,1,2.426-2.626,2.475,2.475,0,0,1,.814-.464.259.259,0,0,1,.209.017c.036.03.034.139.01.2a6.144,6.144,0,0,1-.31.713c-.44.814-.9,1.62-1.34,2.431a11.128,11.128,0,0,0-.956,2.132,3.708,3.708,0,0,0-.184,1.748,1.5,1.5,0,0,0,.488.92.275.275,0,0,0,.482-.092,1.12,1.12,0,0,0,.057-.129c.065-.158.129-.314.192-.471a22.592,22.592,0,0,1,1.764-3.6,14.082,14.082,0,0,1,2.581-3.1,4.462,4.462,0,0,1,1.014-.72,1.575,1.575,0,0,1,.329-.106c.082-.02.128.026.105.111a1,1,0,0,1-.079.235c-.294.538-.588,1.078-.89,1.613a22.392,22.392,0,0,0-1.325,2.57,3.462,3.462,0,0,0-.291,1.734,1.849,1.849,0,0,0,.749,1.34,2.516,2.516,0,0,0,1.892.4,3.167,3.167,0,0,0,1.35-.557c.079-.052.106-.038.157.036a2.04,2.04,0,0,0,.286.337c.209.194.374.146.477-.121.115-.3.23-.608.349-.91a24,24,0,0,1,1.494-3.152,12.355,12.355,0,0,1,2.331-2.922,5.329,5.329,0,0,1,1.115-.839,1.588,1.588,0,0,1,.372-.142c.127-.031.186.037.161.165a.909.909,0,0,1-.063.208c-.142.3-.278.6-.436.9-.511.943-1.042,1.876-1.543,2.824a6.527,6.527,0,0,0-.782,2.363,2.487,2.487,0,0,0,.118,1.176,1.332,1.332,0,0,0,.4.558.266.266,0,0,0,.451-.075,1.24,1.24,0,0,0,.074-.156c.368-.844.708-1.7,1.109-2.53a14.924,14.924,0,0,1,3.076-4.312,5.978,5.978,0,0,1,1.279-1,1.752,1.752,0,0,1,.393-.146c.114-.031.156.02.121.137a1.628,1.628,0,0,1-.126.322q-.5.9-1.007,1.8a19.162,19.162,0,0,0-1.131,2.208,3.691,3.691,0,0,0-.325,1.62,1.873,1.873,0,0,0,1.094,1.715,2.655,2.655,0,0,0,1.568.2,3.354,3.354,0,0,0,1.533-.7c.088-.068.129-.061.195.026a1.252,1.252,0,0,0,.614.444,2.065,2.065,0,0,0,1.562-.082,4.052,4.052,0,0,0,1.237-.9c.026-.026.053-.05.08-.076l.02.013a.467.467,0,0,1-.017.069c-.163.44-.323.881-.492,1.319a.274.274,0,0,1-.134.138,12.367,12.367,0,0,0-1.994,1.093,6.645,6.645,0,0,0-2.113,2.217,4.34,4.34,0,0,0-.58,1.791,3.064,3.064,0,0,0,1.027,2.446.814.814,0,0,0,.762.221,2.062,2.062,0,0,0,.891-.448,5.913,5.913,0,0,0,1.313-1.562,19.239,19.239,0,0,0,1.5-3.052c.322-.8.622-1.618.927-2.429a.4.4,0,0,1,.225-.254c.368-.167.734-.34,1.093-.526a8.7,8.7,0,0,0,2.07-1.4l.068-.066a4.143,4.143,0,0,0,.8-2.528,11.563,11.563,0,0,1-3.688,3.537" transform="translate(-82.07 161.646)"/></g></svg>