<svg xmlns="http://www.w3.org/2000/svg" width="103.292" height="19.61" viewBox="0 0 103.292 19.61"><defs><style>.a{fill:#9981bb;}.b{fill:#e07db2;}</style></defs><g transform="translate(0 0)"><path class="a" d="M100.049-97.383a1.543,1.543,0,0,0,.628.736,1.74,1.74,0,0,0,.924.265,1.631,1.631,0,0,0,1.2-.49,1.655,1.655,0,0,0,.491-1.218,1.8,1.8,0,0,0-.136-.688l-5.126-11.53a1.633,1.633,0,0,0-1.63-1.059,1.676,1.676,0,0,0-1.63,1.059l-5.225,11.53a1.689,1.689,0,0,0-.157.688,1.652,1.652,0,0,0,.177.8,1.747,1.747,0,0,0,.432.53,1.609,1.609,0,0,0,.55.294,1.844,1.844,0,0,0,.529.088A1.74,1.74,0,0,0,92-96.647a1.537,1.537,0,0,0,.628-.736l.707-1.67h6.03ZM96.4-106.3l1.768,4.3H94.589Zm-10.508-3.516a1.847,1.847,0,0,0-.579-.933,1.584,1.584,0,0,0-1.071-.363,1.661,1.661,0,0,0-.963.314,1.757,1.757,0,0,0-.648.826l-2.318,6.363-2.317-6.363a1.758,1.758,0,0,0-.649-.826,1.659,1.659,0,0,0-.962-.314,1.583,1.583,0,0,0-1.071.363,1.849,1.849,0,0,0-.58.933L71.9-98.5a1.573,1.573,0,0,0-.06.412,1.6,1.6,0,0,0,.138.658,1.911,1.911,0,0,0,.365.54,1.66,1.66,0,0,0,.539.373,1.651,1.651,0,0,0,.668.137,1.672,1.672,0,0,0,1.042-.362,1.742,1.742,0,0,0,.628-.933l1.473-5.834,2.179,6.01a1.813,1.813,0,0,0,.541.816,1.347,1.347,0,0,0,.893.3,1.348,1.348,0,0,0,.894-.3,1.812,1.812,0,0,0,.54-.816l2.179-6.01,1.454,5.834a1.714,1.714,0,0,0,.638.933,1.7,1.7,0,0,0,1.05.362,1.613,1.613,0,0,0,.766-.167,1.6,1.6,0,0,0,.521-.432,1.9,1.9,0,0,0,.3-.56,1.8,1.8,0,0,0,.1-.569v-.2a.515.515,0,0,0-.04-.2ZM67.976-97.383a1.54,1.54,0,0,0,.63.736,1.734,1.734,0,0,0,.923.265,1.632,1.632,0,0,0,1.2-.49,1.656,1.656,0,0,0,.491-1.218,1.8,1.8,0,0,0-.137-.688l-5.126-11.53a1.632,1.632,0,0,0-1.631-1.059,1.678,1.678,0,0,0-1.63,1.059l-5.224,11.53a1.686,1.686,0,0,0-.157.688,1.64,1.64,0,0,0,.177.8,1.748,1.748,0,0,0,.432.53,1.607,1.607,0,0,0,.549.294,1.845,1.845,0,0,0,.531.088,1.741,1.741,0,0,0,.924-.265,1.543,1.543,0,0,0,.628-.736l.706-1.67h6.03ZM64.323-106.3,66.09-102H62.516Zm-10.507-3.516a1.847,1.847,0,0,0-.579-.933,1.586,1.586,0,0,0-1.071-.363,1.66,1.66,0,0,0-.963.314,1.749,1.749,0,0,0-.648.826l-2.318,6.363-2.318-6.363a1.749,1.749,0,0,0-.648-.826,1.657,1.657,0,0,0-.963-.314,1.582,1.582,0,0,0-1.07.363,1.842,1.842,0,0,0-.58.933L39.831-98.5a1.57,1.57,0,0,0-.059.412,1.585,1.585,0,0,0,.136.658,1.91,1.91,0,0,0,.363.54,1.659,1.659,0,0,0,.541.373,1.641,1.641,0,0,0,.667.137,1.667,1.667,0,0,0,1.041-.362,1.736,1.736,0,0,0,.628-.933l1.474-5.834L46.8-97.5a1.811,1.811,0,0,0,.54.816,1.35,1.35,0,0,0,.894.3,1.352,1.352,0,0,0,.894-.3,1.811,1.811,0,0,0,.54-.816l2.18-6.01,1.454,5.834a1.712,1.712,0,0,0,.637.933,1.71,1.71,0,0,0,1.051.362,1.611,1.611,0,0,0,.766-.167,1.591,1.591,0,0,0,.521-.432,1.87,1.87,0,0,0,.3-.56,1.786,1.786,0,0,0,.1-.569v-.2a.514.514,0,0,0-.04-.2ZM28.145-98.11a1.672,1.672,0,0,0,.5,1.228,1.649,1.649,0,0,0,1.208.5,1.67,1.67,0,0,0,1.228-.5,1.673,1.673,0,0,0,.5-1.228v-2.455h2.14a5.129,5.129,0,0,0,2.043-.412,5.294,5.294,0,0,0,1.679-1.129,5.338,5.338,0,0,0,1.13-1.67,5.122,5.122,0,0,0,.412-2.052,5.2,5.2,0,0,0-.412-2.062,5.315,5.315,0,0,0-1.13-1.679,5.3,5.3,0,0,0-1.679-1.13,5.129,5.129,0,0,0-2.043-.413H29.854a1.649,1.649,0,0,0-1.208.5,1.647,1.647,0,0,0-.5,1.208Zm5.323-9.82a2.032,2.032,0,0,1,.815.166,2.047,2.047,0,0,1,.657.453,2.217,2.217,0,0,1,.442.667,2.008,2.008,0,0,1,.167.815,1.94,1.94,0,0,1-.167.805,2.265,2.265,0,0,1-.442.658,2.052,2.052,0,0,1-.657.452,2.026,2.026,0,0,1-.815.166H31.582v-4.183Zm-18.4,4.183a4.077,4.077,0,0,1,.324-1.62,4.2,4.2,0,0,1,.894-1.326,4.335,4.335,0,0,1,1.326-.9,3.959,3.959,0,0,1,1.62-.334,4.034,4.034,0,0,1,1.631.334,4.307,4.307,0,0,1,1.336.9,4.185,4.185,0,0,1,.893,1.326,4.059,4.059,0,0,1,.324,1.62,4.062,4.062,0,0,1-.324,1.621,4.175,4.175,0,0,1-.893,1.326,4.179,4.179,0,0,1-1.336.894,4.152,4.152,0,0,1-1.631.324,4.075,4.075,0,0,1-1.62-.324,4.2,4.2,0,0,1-1.326-.894,4.19,4.19,0,0,1-.894-1.326,4.08,4.08,0,0,1-.324-1.621m4.163,7.621a7.42,7.42,0,0,0,2.967-.6,7.685,7.685,0,0,0,2.426-1.629,7.676,7.676,0,0,0,1.63-2.427,7.43,7.43,0,0,0,.6-2.966,7.436,7.436,0,0,0-.6-2.965,7.673,7.673,0,0,0-1.63-2.426,7.693,7.693,0,0,0-2.426-1.631,7.449,7.449,0,0,0-2.967-.6,7.377,7.377,0,0,0-2.956.6,7.732,7.732,0,0,0-2.415,1.631,7.682,7.682,0,0,0-1.63,2.426,7.43,7.43,0,0,0-.6,2.965,7.424,7.424,0,0,0,.6,2.966,7.685,7.685,0,0,0,1.63,2.427,7.723,7.723,0,0,0,2.415,1.629,7.348,7.348,0,0,0,2.956.6M0-98.11a1.67,1.67,0,0,0,.5,1.228,1.647,1.647,0,0,0,1.207.5,1.672,1.672,0,0,0,1.228-.5,1.672,1.672,0,0,0,.5-1.228v-2.455H5.578a5.135,5.135,0,0,0,2.043-.412A5.309,5.309,0,0,0,9.3-102.107a5.332,5.332,0,0,0,1.129-1.67,5.113,5.113,0,0,0,.412-2.052,5.19,5.19,0,0,0-.412-2.062A5.31,5.31,0,0,0,9.3-109.57a5.311,5.311,0,0,0-1.679-1.13,5.135,5.135,0,0,0-2.043-.413H1.708a1.647,1.647,0,0,0-1.207.5A1.644,1.644,0,0,0,0-109.4Zm5.322-9.82a2.031,2.031,0,0,1,.815.166,2.052,2.052,0,0,1,.658.453,2.233,2.233,0,0,1,.442.667,2.017,2.017,0,0,1,.167.815,1.948,1.948,0,0,1-.167.805,2.281,2.281,0,0,1-.442.658,2.057,2.057,0,0,1-.658.452,2.025,2.025,0,0,1-.815.166H3.437v-4.183Z" transform="translate(0 111.367)"/><path class="b" d="M515.753-20.579a1.591,1.591,0,0,0-.635.128,1.633,1.633,0,0,0-.521.351,1.664,1.664,0,0,0-.351.521,1.6,1.6,0,0,0-.127.635v1.322a.562.562,0,0,0,.048.233.653.653,0,0,0,.128.19.584.584,0,0,0,.191.131.587.587,0,0,0,.236.049.565.565,0,0,0,.233-.049.635.635,0,0,0,.192-.131.666.666,0,0,0,.131-.19.578.578,0,0,0,.048-.233v-1.322a.41.41,0,0,1,.124-.3.413.413,0,0,1,.3-.127.411.411,0,0,1,.3.127.408.408,0,0,1,.125.3v1.322a.572.572,0,0,0,.048.233.646.646,0,0,0,.131.19.625.625,0,0,0,.191.131.57.57,0,0,0,.233.049.592.592,0,0,0,.237-.049.6.6,0,0,0,.191-.131.7.7,0,0,0,.128-.19.579.579,0,0,0,.048-.233v-1.322a.412.412,0,0,1,.125-.3.416.416,0,0,1,.308-.127.411.411,0,0,1,.3.127.408.408,0,0,1,.126.3v1.322a.579.579,0,0,0,.047.233.674.674,0,0,0,.128.19.594.594,0,0,0,.191.131.594.594,0,0,0,.237.049.57.57,0,0,0,.233-.049.634.634,0,0,0,.191-.131.644.644,0,0,0,.131-.19.577.577,0,0,0,.048-.233v-1.322a1.6,1.6,0,0,0-.128-.635,1.646,1.646,0,0,0-.35-.521,1.653,1.653,0,0,0-.521-.351,1.6,1.6,0,0,0-.635-.128,1.53,1.53,0,0,0-.587.109,1.8,1.8,0,0,0-.451.262,1.663,1.663,0,0,0-.443-.262,1.538,1.538,0,0,0-.588-.109M513.782-18.8a1.722,1.722,0,0,0-.14-.69,1.815,1.815,0,0,0-.382-.567,1.79,1.79,0,0,0-.567-.382,1.749,1.749,0,0,0-.695-.14,1.728,1.728,0,0,0-.693.14,1.8,1.8,0,0,0-.564.382,1.78,1.78,0,0,0-.382.567,1.726,1.726,0,0,0-.139.69,1.742,1.742,0,0,0,.139.7,1.788,1.788,0,0,0,.382.567,1.809,1.809,0,0,0,.564.382,1.719,1.719,0,0,0,.693.14,1.74,1.74,0,0,0,.695-.14,1.8,1.8,0,0,0,.567-.382,1.823,1.823,0,0,0,.382-.567,1.738,1.738,0,0,0,.14-.7m-1.783.57a.549.549,0,0,1-.4-.165.549.549,0,0,1-.166-.4.549.549,0,0,1,.166-.405.549.549,0,0,1,.4-.166.553.553,0,0,1,.4.166.553.553,0,0,1,.165.405.553.553,0,0,1-.165.4.554.554,0,0,1-.4.165m-3.533-2.382a1.765,1.765,0,0,0-.706.143,1.836,1.836,0,0,0-.579.39,1.856,1.856,0,0,0-.39.576,1.747,1.747,0,0,0-.143.7,1.773,1.773,0,0,0,.143.707,1.847,1.847,0,0,0,.39.578,1.83,1.83,0,0,0,.579.39,1.756,1.756,0,0,0,.706.143,1.912,1.912,0,0,0,.761-.143,1.816,1.816,0,0,0,.589-.4.557.557,0,0,0,.178-.4.565.565,0,0,0-.066-.273.72.72,0,0,0-.166-.205.689.689,0,0,0-.214-.128.609.609,0,0,0-.215-.043.451.451,0,0,0-.253.063,1.807,1.807,0,0,0-.177.134,1.6,1.6,0,0,1-.18.133.464.464,0,0,1-.257.063.579.579,0,0,1-.237-.048.63.63,0,0,1-.193-.13.616.616,0,0,1-.132-.194.6.6,0,0,1-.048-.237.574.574,0,0,1,.048-.234.614.614,0,0,1,.132-.191.618.618,0,0,1,.193-.13.585.585,0,0,1,.237-.049.462.462,0,0,1,.26.063,2.129,2.129,0,0,1,.177.135q.083.071.173.133a.446.446,0,0,0,.257.063.572.572,0,0,0,.265-.063.745.745,0,0,0,.21-.157.7.7,0,0,0,.138-.21.6.6,0,0,0,.048-.225.536.536,0,0,0-.043-.206.6.6,0,0,0-.135-.194,1.792,1.792,0,0,0-.589-.4,1.921,1.921,0,0,0-.761-.143m-2.7,2.285a.642.642,0,0,0-.257.052.655.655,0,0,0-.207.139.621.621,0,0,0-.14.208.634.634,0,0,0-.052.257.63.63,0,0,0,.052.256.627.627,0,0,0,.14.208.664.664,0,0,0,.207.14.651.651,0,0,0,.257.051.655.655,0,0,0,.257-.051.663.663,0,0,0,.208-.14.667.667,0,0,0,.14-.208.649.649,0,0,0,.051-.256.653.653,0,0,0-.051-.257.659.659,0,0,0-.14-.208.654.654,0,0,0-.208-.139.646.646,0,0,0-.257-.052" transform="translate(-416.165 36.594)"/></g></svg>