<svg version="1.1" id="Layer_1" xmlns="http://www.w3.org/2000/svg" xmlns:xlink="http://www.w3.org/1999/xlink" x="0px" y="0px" viewBox="0 0 1920 1280.36" style="enable-background:new 0 0 1920 1280.36;" xml:space="preserve" width="100%" height="100%" preserveAspectRatio="none"><style type="text/css"> .st0{fill:#EE2C39;} .st1{display:none;} .st2{display:inline;fill:#FFFFFF;} .st3{display:inline;opacity:0.63;fill:#FFFFFF;} .st4{fill:#E89D23;} .st5{fill:#FFFFFF;} .st6{opacity:0.63;fill:#FFFFFF;} </style><g><polygon class="st0" points="907.57,180.99 1026.82,245.33 1391.48,115.87 1302.18,33.4 1299.74,32.09 1280.03,12.39 1279.53,48.06 1263.87,44.97 1249.32,58.07 1224.75,51.7 1205.64,68.08 1187.81,61.53 1186.53,92.28 1141.58,77.54 1139.03,85.01 1122.84,87.92 1119.01,93.74 1102.64,86.28 1098.81,107.75 1077.16,93.19 1076.61,110.67 1074.43,118.49 1052.95,101.75 1037.3,111.39 1026.57,108.48 1014.74,116.12 1007.82,113.58 1004.36,122.86 1003.45,142.51 983.07,123.04 959.96,135.42 941.76,121.04 925.02,126.13 916.65,141.78 923.93,151.79 913.01,151.25 933.03,171.45 925.56,179.09 "/><polygon class="st0" points="460.91,616.89 1924.28,1287.97 1921.92,336.59 1394.16,63.79 964.09,253.97 868.1,199.66 833.7,352.88 615.86,271.58 432.27,398.33 575.2,463.37 567.91,553.01 "/><g><g class="st1"><path class="st2" d="M591.38,227.21c-14.35,2.17-29.4,16.1-37.09,34.31c-1.82,4.31-3.13,8.68-3.98,12.99 c-3.23-14.21-13.64-22.73-26.98-20.71c-14.38,2.18-29.41,16.1-37.02,34.29c-1.8,4.3-3.09,8.67-3.92,12.97 c-3.31-14.19-13.8-22.68-27.17-20.65c-14.42,2.19-29.41,16.1-36.95,34.27c-7.55,18.19-6.27,37.62,3.1,47.61 c9.34,9.96,25.13,9.06,38.91-2.3c10.98-9.06,19.2-23.56,22.09-38.04c1.22,5.48,3.48,10.26,6.79,13.83 c9.26,9.99,25.01,9.1,38.81-2.27c11-9.06,19.27-23.58,22.22-38.08c1.19,5.49,3.41,10.28,6.69,13.86 c9.18,10.01,24.89,9.14,38.7-2.23c13.78-11.34,23.37-31.25,23.6-48.99C619.42,237.96,607.6,224.75,591.38,227.21z"/><path class="st2" d="M475.84,482.58c3.61,17.17,12.84,30.83,29.04,29.75c15.37-1.03,32.57-15.9,40.6-35.65 c4.84-11.89,4.32-23,4.37-34.1c0.03-7.49,0.05-14.99,0.11-22.52c0.06-8.29,0.13-16.59,0.22-24.92 c0.12-10.67-0.06-20.95,4.43-32.39c6.22-15.84,18.47-28.9,31.17-33.26c12.83-4.41,24.4,0.76,29.32,12.98 c3.27,8.11,2.55,18.55,2.46,28.55c-0.08,8.24-0.18,16.48-0.29,24.71c-0.22,17.73,0.46,35.82-2.62,54.3 c-7.1,42.61-30.59,86.28-62.01,114.43c-31.35,28.09-68.35,38.41-96.53,27c-13.94-5.64-25.45-16.52-33.07-31.39 c-7.55-14.74-12.18-35.14-9.35-56.21c2.11-15.74,11.97-31.82,24.41-39.75c12.93-8.24,26.45-6.39,33.18,4.51 C473.73,472.59,474.78,477.5,475.84,482.58z"/><line class="st2" x1="1063.31" y1="228.07" x2="1063.31" y2="228.07"/><line class="st3" x1="1063.52" y1="228.59" x2="1063.52" y2="228.6"/><path class="st2" d="M1435.45,129.22c-4.14,55.19-43.93,113.28-90.05,131.4c-45.84,18.01-79.08-11.06-75.61-66.42 c3.5-55.83,42.75-113.97,89.6-132.32C1405.91,43.66,1439.63,73.55,1435.45,129.22z M1312.55,177.8 c-1.97,29.87,13.41,44.63,36.41,35.6c22.68-8.91,41.33-37.39,43.45-66.93c2.16-30.06-13.45-45.75-36.31-36.79 C1332.92,118.77,1314.55,147.41,1312.55,177.8z"/><path class="st2" d="M765.9,428.31c7.73,2.34,15.16,4.93,24.62,0.55c9.04-4.18,17.45-13.11,22.85-24.07 c5.02-10.19,5.19-19.67,5.46-29.33c0.46-16.34,3.68-129.35,3.91-137.66c0.16-5.75,0.07-11.35,2.04-17.54 c5.86-18.44,23.5-30.55,34.13-23.39c5.68,3.83,7.09,11.56,6.81,20.5c-0.57,17.97-4.04,140.82-4.96,153.12 c-1.64,22.11-10.47,46.28-23.77,66.4c-13.74,20.8-32.17,36.51-50.68,43.77c-17.77,6.97-36.37,6.18-47.64-5.87 c-4.54-4.85-7.09-11.71-5.05-21.23c1.97-9.19,7.84-18.22,15-23.03C755.12,426.19,760.5,426.67,765.9,428.31z"/><path class="st2" d="M1057.93,329.08l0.02-0.02c-6.25-2.21-9.86-9.1-9.55-18.25l4.77-103.39c0.66-14.4-8.34-22.36-20.11-17.75 c-10.78,4.22-20.1,17.52-22.06,30.78c-10.15-9.96-26.09-11.92-45.66-4.26c-43.94,17.21-77.3,71.64-79.22,128.89 c-1.91,56.74,28.19,85.3,71.46,68.29c0.2-0.08,0.39-0.16,0.59-0.24c0.2-0.08,0.39-0.14,0.59-0.22 c20.75-8.15,39.15-24.66,52.98-45.88c6.17,9.99,16.58,14.96,29.4,12.71c1.25-0.22,2.5-0.58,3.75-1.07 c0.08-0.03,0.15-0.07,0.23-0.11c0.1-0.04,0.19-0.06,0.29-0.1c11.12-4.37,20.64-18.81,21.29-32.29 C1067.12,337.3,1063.57,331.08,1057.93,329.08z M967.21,364.03c-23.43,9.2-39.2-5.84-38.09-35.82 c1.11-30.12,18.94-58.99,42.24-68.12c23.3-9.13,38.43,6.05,37.1,36.99C1007.14,327.88,990.64,354.83,967.21,364.03z"/><path class="st2" d="M1251.26,130c0.92-15.13-7.21-22.95-19.17-18.27c-11.02,4.32-20.43,17.87-22.18,32.2 c-9.83-10.93-26.02-13.32-46.19-5.42c-43.83,17.16-77.73,71.75-80.53,129.27c-2.77,57.01,26.61,85.79,69.77,68.83 c19.37-7.61,35.84-22.05,47.24-40.68l-0.35,6.08c-1.91,30.49-18.59,56.92-41.62,65.98c-9.87,3.88-18.54,3.57-25.08-0.9 c-2.44-1.67-4.56-3.91-6.31-6.66c-5.8-9.15-18.65-7.2-28.68,4.35c-10.02,11.54-13.41,28.27-7.58,37.36 c3.68,5.74,8.17,10.43,13.36,13.94c13.8,9.34,31.61,10.12,51.53,2.28c45.92-18.07,81.89-72.87,86.18-131.27l0.71-11.08 c0,0,0-0.01,0-0.01L1251.26,130z M1163.28,287.05c-23.37,9.17-38.76-5.98-37.2-36.1c1.57-30.26,19.69-59.21,42.93-68.32 c23.24-9.11,38,6.2,36.2,37.28C1203.42,250.84,1186.64,277.88,1163.28,287.05z"/></g><g><g><path class="st4" d="M591.14,263.47c-14.41,2.19-29.52,16.16-37.24,34.4c-1.83,4.31-3.14,8.7-4,13.01 c-3.24-14.23-13.7-22.74-27.09-20.7c-14.44,2.2-29.53,16.16-37.17,34.38c-1.81,4.31-3.11,8.68-3.94,12.99 c-3.33-14.2-13.86-22.69-27.28-20.64c-14.48,2.22-29.53,16.16-37.1,34.37c-7.58,18.22-6.3,37.67,3.11,47.66 c9.38,9.96,25.24,9.04,39.07-2.36c11.03-9.08,19.28-23.62,22.17-38.12c1.22,5.49,3.49,10.27,6.82,13.84 c9.3,9.99,25.11,9.07,38.96-2.32c11.04-9.09,19.34-23.63,22.31-38.16c1.19,5.5,3.43,10.29,6.72,13.87 c9.22,10.01,24.99,9.11,38.86-2.29c13.84-11.38,23.47-31.32,23.69-49.08C619.29,274.2,607.42,260.99,591.14,263.47z"/><path class="st4" d="M477.97,512c3.5,16.62,12.46,29.83,28.17,28.77c14.91-1.01,31.6-15.43,39.4-34.56 c4.69-11.51,4.19-22.27,4.24-33.01c0.03-7.25,0.05-14.51,0.11-21.79c0.06-8.02,0.12-16.06,0.21-24.11 c0.12-10.33-0.06-20.27,4.3-31.34c6.04-15.33,17.91-27.98,30.23-32.22c12.45-4.28,23.67,0.71,28.45,12.52 c3.17,7.85,2.48,17.95,2.39,27.62c-0.07,7.97-0.18,15.95-0.27,23.92c-0.21,17.16,0.45,34.67-2.53,52.56 c-6.89,41.26-29.68,83.56-60.17,110.86c-30.42,27.23-66.34,37.27-93.68,26.24c-13.52-5.45-24.69-15.98-32.08-30.37 c-7.32-14.27-11.8-34.01-9.06-54.41c2.05-15.24,11.62-30.82,23.69-38.5c12.55-7.99,25.66-6.22,32.19,4.33 C475.93,502.33,476.95,507.09,477.97,512z"/></g><g><line class="st5" x1="1072.33" y1="230.22" x2="1072.33" y2="230.22"/><line class="st6" x1="1072.54" y1="230.74" x2="1072.53" y2="230.74"/><path class="st5" d="M1435.11,133.83c-4.04,53.8-42.84,110.43-87.81,128.1c-44.7,17.56-77.1-10.78-73.7-64.74 c3.43-54.42,41.7-111.08,87.37-128.96C1406.3,50.47,1439.18,79.59,1435.11,133.83z M1315.28,181.2 c-1.93,29.11,13.07,43.51,35.49,34.7c22.12-8.68,40.3-36.46,42.37-65.25c2.11-29.3-13.1-44.59-35.39-35.85 C1335.15,123.67,1317.24,151.59,1315.28,181.2z"/><path class="st5" d="M782.33,425.44c7.53,2.29,14.77,4.81,23.99,0.54c8.82-4.08,17.02-12.78,22.29-23.46 c4.9-9.94,5.08-19.18,5.36-28.59c0.47-15.94,3.73-126.09,3.97-134.18c0.17-5.61,0.08-11.06,2-17.1 c5.73-17.97,22.92-29.77,33.27-22.79c5.53,3.73,6.89,11.26,6.61,19.98c-0.57,17.51-4.09,137.26-4.99,149.25 c-1.62,21.56-10.26,45.12-23.23,64.75c-13.42,20.29-31.39,35.6-49.44,42.68c-17.32,6.79-35.45,6.03-46.41-5.73 c-4.42-4.73-6.89-11.42-4.89-20.71c1.93-8.96,7.66-17.77,14.65-22.46C771.84,423.36,777.08,423.83,782.33,425.44z"/><path class="st5" d="M1067.02,328.7l0.02-0.02c-6.09-2.15-9.6-8.88-9.29-17.8l4.72-100.79c0.66-14.03-8.11-21.79-19.58-17.29 c-10.51,4.12-19.6,17.07-21.52,30c-9.88-9.71-25.41-11.62-44.49-4.15c-42.83,16.77-75.38,69.83-77.31,125.63 c-1.92,55.33,27.38,83.18,69.58,66.6c0.2-0.08,0.38-0.16,0.58-0.24c0.19-0.08,0.38-0.14,0.58-0.21 c20.23-7.95,38.18-24.05,51.68-44.74c6.01,9.74,16.15,14.59,28.65,12.4c1.22-0.22,2.44-0.57,3.65-1.04 c0.07-0.03,0.15-0.07,0.22-0.11c0.09-0.04,0.19-0.06,0.28-0.09c10.84-4.26,20.14-18.34,20.77-31.48 C1075.97,336.71,1072.52,330.65,1067.02,328.7z M978.57,362.77c-22.84,8.97-38.19-5.7-37.09-34.92 c1.11-29.36,18.51-57.5,41.23-66.4c22.71-8.9,37.44,5.9,36.12,36.06C1017.52,327.52,1001.41,353.8,978.57,362.77z"/><path class="st5" d="M1255.55,134.63c0.9-14.75-7.01-22.37-18.68-17.8c-10.74,4.21-19.92,17.42-21.63,31.38 c-9.57-10.65-25.35-12.98-45.01-5.28c-42.72,16.73-75.79,69.93-78.56,126c-2.74,55.58,25.88,83.64,67.97,67.1 c18.89-7.42,34.95-21.5,46.07-39.67l-0.35,5.93c-1.87,29.73-18.15,55.51-40.61,64.34c-9.63,3.78-18.08,3.48-24.45-0.88 c-2.38-1.63-4.45-3.81-6.14-6.49c-5.65-8.92-18.18-7.03-27.96,4.24c-9.78,11.25-13.09,27.57-7.41,36.43 c3.58,5.6,7.96,10.17,13.02,13.6c13.44,9.11,30.81,9.88,50.24,2.23c44.78-17.62,79.88-71.07,84.08-128.02l0.7-10.8 c0,0,0-0.01,0-0.01L1255.55,134.63z M1169.73,287.71c-22.78,8.95-37.78-5.83-36.24-35.19c1.55-29.49,19.22-57.71,41.88-66.59 c22.65-8.88,37.03,6.03,35.26,36.33C1208.87,252.41,1192.5,278.77,1169.73,287.71z"/></g></g></g><g><path class="st5" d="M907.57,180.99c-1.1-1.19-1.64-2.63-1.43-4.46c0.46-3.5,3.01-6.46,5.54-7.19c0.95-0.27,1.94-0.18,2.64,0.46 c1.85,2.08,5.17,4.88,10.49,3.36c4.69-1.34,7.74-4.83,8.17-9.16c0.37-3.64-1.3-4.65-5.85-5.95l-5.29-1.45 c-7.79-2.2-11.53-6.38-10.65-14.4c1.14-10.42,9.23-19.6,18.96-22.38c7.71-2.21,11.8,0.77,13.7,3.12c0.96,1.09,1.13,2.4,1.01,3.61 c-0.31,3.18-2.98,6.31-5.41,7.01c-0.94,0.27-1.92,0.19-2.77-0.48c-1.89-1.65-4.02-3.13-7.69-2.07c-3.75,1.07-6.64,3.99-7.05,7.84 c-0.33,3.11,0.93,4.21,5.29,5.44l5.58,1.43c8.2,2.17,11.88,6.1,11.05,14.71c-1.13,11.75-9.75,21.37-20.27,24.38 C917.39,186.57,910.9,185.12,907.57,180.99z"/><path class="st5" d="M990.06,139.02l-0.02,0.28c-0.32,3.99-2.9,7.24-6.39,8.24l-22.35,6.39c0.73,5.58,4.4,7.9,10.2,6.24 c2.86-0.82,5.89-2.62,8.42-5.13c0.84-0.8,1.58-1.29,2.38-1.52c2.46-0.7,4.19,0.96,3.95,3.93c-0.17,2.12-1.09,3.89-3.13,5.98 c-3.83,3.93-8.27,6.71-12.9,8.03c-12.45,3.56-20.62-4.56-19.28-18.75c1.31-13.95,11.01-26.98,22.45-30.25 C983.97,119.44,991.08,126.37,990.06,139.02z M962.12,144.89l17.77-5.08c0.31-5.54-2.67-8.46-7.63-7.04 C967.62,134.1,963.82,138.77,962.12,144.89z"/><path class="st5" d="M1058.92,116.27l-1.3,23.72c-0.21,3.83-2.68,7.28-5.72,8.15c-3.12,0.89-5.27-1.33-5.05-5.07l1.29-21.95 c0.33-5.55-2.15-8.25-6.41-7.03c-4.26,1.22-7.4,5.62-7.74,10.8l-1.43,22.26c-0.25,3.84-2.74,7.3-5.78,8.17 c-3.12,0.89-5.24-1.34-4.98-5.09l1.5-22c0.38-5.56-2.14-8.25-6.32-7.05c-4.33,1.24-7.43,5.63-7.83,11.1l-1.61,22.03 c-0.28,3.85-2.8,7.31-5.84,8.18c-3.12,0.89-5.21-1.35-4.92-5.11l2.79-36.18c0.28-3.65,2.77-7.01,5.75-7.86 c2.43-0.7,4.18,0.63,4.6,3.25c2.89-3.75,6.62-6.46,10.86-7.68c5.02-1.44,8.87-0.26,11.11,3.31c3.33-4.98,8.2-8.84,13.39-10.33 C1054.29,99.31,1059.55,104.85,1058.92,116.27z"/><path class="st5" d="M1068.3,121.85l1.06-20.64c0.19-3.63,2.6-6.97,5.67-7.84c2.99-0.85,5.14,1.18,4.97,4.8l-1.03,21.65 c-0.25,5.21,2.68,8.12,7.06,6.87c4.3-1.23,7.49-5.89,7.71-11.09l0.91-21.62c0.15-3.62,2.47-6.93,5.61-7.83 c2.99-0.86,5.17,1.17,5.03,4.78l-0.78,20.56c-0.49,12.87-8.36,24-19.01,27.04C1074.7,141.62,1067.64,134.77,1068.3,121.85z"/><path class="st5" d="M1147.89,92.01l-0.49,22.4c-0.08,3.71-2.38,7.01-5.35,7.86c-2.64,0.76-4.68-0.75-5.08-3.47 c-2.97,4.06-7.02,7.02-11.75,8.37c-8.17,2.34-13.5-1.81-13.21-10.17c0.29-8.4,6.1-15.18,15.3-17.81l9.83-2.81l0.05-2.05 c0.13-5.12-2.4-7.35-7.14-5.99c-2.76,0.79-5.25,2.61-7.61,5.59c-1.3,1.48-2.18,2.1-3.21,2.4c-2.61,0.75-4.51-1.02-4.41-3.81 c0.06-1.77,0.91-3.66,2.38-5.64c3.43-4.55,8.61-8.05,14.27-9.67C1142.18,74.14,1148.17,79.48,1147.89,92.01z M1136.93,105.3 l0.01-0.56l-8.43,2.41c-3.58,1.02-5.54,3.17-5.64,6.29c-0.1,3.12,2,4.5,5.51,3.49C1133.09,115.58,1136.79,110.58,1136.93,105.3z"/><path class="st5" d="M1171.52,130.26c-2.01-0.39-3.27-1.85-3.24-4.34c0.04-3.16,2.01-6.11,4.66-6.86c0.4-0.11,0.64-0.09,1.04-0.2 c4.02-1.15,6.13-3.56,6.19-10.22l0.37-39.25c0.03-3.59,2.34-6.9,5.42-7.78c2.99-0.86,5.26,1.15,5.24,4.73l-0.23,41.49 c-0.06,11.63-5.91,19.43-15.04,22.04C1174.09,130.39,1172.72,130.39,1171.52,130.26z M1192.66,44.33 c-0.02,4.08-3.1,8.22-6.63,9.24c-3.69,1.06-6.64-1.36-6.6-5.44c0.04-4.16,3.04-8.26,6.71-9.31 C1189.65,37.81,1192.68,40.18,1192.66,44.33z"/><path class="st5" d="M1234.74,67.17l0.25,22.21c0.04,3.67-2.18,6.96-5.15,7.81c-2.65,0.76-4.75-0.73-5.26-3.42 c-2.87,4.04-6.87,6.98-11.61,8.33c-8.19,2.34-13.71-1.76-13.7-10.05c0.02-8.33,5.67-15.07,14.89-17.7l9.85-2.82l-0.01-2.04 c-0.04-5.08-2.67-7.28-7.42-5.92c-2.77,0.79-5.22,2.6-7.51,5.57c-1.27,1.47-2.14,2.09-3.17,2.39c-2.62,0.75-4.59-1-4.59-3.76 c0-1.75,0.8-3.63,2.22-5.6c3.32-4.52,8.44-8,14.11-9.63C1228.37,49.46,1234.6,54.74,1234.74,67.17z M1224.08,80.37l0-0.56 l-8.45,2.42c-3.59,1.03-5.5,3.16-5.49,6.25c0.01,3.1,2.17,4.45,5.69,3.45C1220.55,90.58,1224.12,85.61,1224.08,80.37z"/><path class="st5" d="M1283.33,16.73l1.77,58.32c0.11,3.66-2.06,7.03-5.11,7.9c-2.81,0.8-5.22-1.16-5.46-4.4 c-2.63,4.54-6.84,7.92-11.98,9.39c-11.17,3.19-19.43-4.75-19.63-18.73c-0.2-13.84,7.63-26.09,18.6-29.23 c4.89-1.4,9.05-0.58,11.82,2.02l-0.58-22.24c-0.09-3.49,2.11-6.82,5.16-7.69C1280.87,11.21,1283.22,13.15,1283.33,16.73z M1273.96,60.32c-0.2-7.47-4.37-11.45-10.24-9.77c-5.86,1.68-10.05,8.24-9.91,15.44c0.14,7.43,4.48,11.54,10.48,9.83 C1270.29,74.1,1274.16,67.83,1273.96,60.32z"/><path class="st5" d="M1305.83,11.91c0.16,4.03-2.79,8.14-6.33,9.16c-3.7,1.06-6.8-1.32-6.94-5.36c-0.14-4.11,2.73-8.18,6.41-9.23 C1302.49,5.47,1305.67,7.8,1305.83,11.91z M1295.84,71.88l-1.21-35.16c-0.12-3.55,2.08-6.83,5.16-7.71c3-0.86,5.39,1.11,5.53,4.65 l1.36,35.12c0.14,3.65-2.08,7.13-5.22,8.03C1298.4,77.69,1295.97,75.54,1295.84,71.88z"/></g></g></svg>