<svg version="1.0" id="Layer_1" xmlns="http://www.w3.org/2000/svg" xmlns:xlink="http://www.w3.org/1999/xlink" x="0px" y="0px" viewBox="0 0 215 85" enable-background="new 0 0 215 85" xml:space="preserve" width="100%" height="100%" preserveAspectRatio="none"><g><g><path fill="#F6B644" d="M49.7,16.2c-2.4-0.5-5,0.6-6.2,2.8c-0.3,0.5-0.5,1-0.7,1.6c-0.6-2.2-2.3-3.9-4.6-4.4 c-2.4-0.5-5,0.6-6.2,2.8c-0.3,0.5-0.5,1-0.7,1.6c-0.6-2.2-2.3-3.9-4.6-4.4c-2.4-0.5-5,0.6-6.2,2.8c-1.3,2.1-1.1,4.9,0.5,6.8 c1.6,1.9,4.3,2.7,6.6,1.8c1.9-0.7,3.3-2.3,3.7-4.1c0.2,0.8,0.6,1.6,1.2,2.3c1.6,1.9,4.3,2.7,6.6,1.8c1.9-0.7,3.3-2.3,3.7-4.1 c0.2,0.8,0.6,1.6,1.2,2.3c1.6,1.9,4.3,2.7,6.6,1.8c2.3-0.8,3.9-3.1,3.9-5.6C54.5,19.2,52.5,16.7,49.7,16.2z" data-color-group="0"/><path fill="#F6B644" d="M30.7,45c0.6,2.6,2.1,5,4.8,5.7c2.6,0.7,5.4-0.4,6.7-2.8c0.8-1.4,0.7-3,0.7-4.5c0-1,0-2.1,0-3.1 c0-1.1,0-2.3,0-3.4c0-1.5,0-2.9,0.7-4.2c1-1.8,3-3,5.1-2.9c2.1,0.1,4,1.4,4.9,3.4c0.6,1.3,0.5,2.7,0.5,4.1c0,1.1,0,2.3,0,3.4 c0,2.4,0.2,5-0.3,7.4c-1.1,5.6-5,10.4-10.2,12.7c-5.2,2.2-11.4,1.6-16.2-1.5c-2.3-1.6-4.2-3.7-5.5-6.2c-1.2-2.5-2-5.6-1.5-8.4 c0.4-2.1,2-3.8,4.1-4.2c2.1-0.4,4.4,0.5,5.5,2.4C30.4,43.5,30.5,44.3,30.7,45z" data-color-group="0"/></g><g><line fill="#231F20" x1="132.3" y1="38.1" x2="132.3" y2="38.1" data-color-group="1"/><line opacity="0.63" fill="#231F20" x1="132.4" y1="38.1" x2="132.4" y2="38.1" data-color-group="1"/><path fill="#231F20" d="M195.4,44.7c0,7.6-6.2,13.6-14,13.6c-7.8,0-13.9-6-13.9-13.6s6.1-13.6,13.9-13.6 C189.2,31.1,195.4,37.1,195.4,44.7z M174.7,44.7c0,4.1,2.8,7.1,6.7,7.1c3.8,0,6.7-3,6.7-7.1c0-4.1-2.9-7.2-6.7-7.2 C177.5,37.5,174.7,40.5,174.7,44.7z" data-color-group="1"/><path fill="#231F20" d="M83,49.8c1.3,0.8,2.6,1.5,4.2,1.4c1.5-0.1,2.9-0.9,3.8-2.1c0.8-1.2,0.8-2.5,0.8-3.8c0-2.3,0-17.8,0-18.9 c0-0.8,0-1.6,0.3-2.3c0.9-2.2,3.8-2.9,5.6-1.4c1,0.8,1.2,2,1.2,3.2c0,2.4,0.1,19.3,0,21c-0.2,3-1.5,6-3.7,8.1 c-2.2,2.2-5.3,3.4-8.4,3.4c-3,0-6.2-1.2-8.1-3.5c-0.8-0.9-1.2-2.1-0.9-3.3c0.3-1.2,1.3-2.1,2.5-2.4C81.2,48.9,82.1,49.2,83,49.8z" data-color-group="1"/><path fill="#231F20" d="M132.2,52L132.2,52c-1.1-0.7-1.8-1.8-1.8-3.1l0-14.2c0-2-1.6-3.6-3.6-3.6c-1.8,0-3.3,1.3-3.5,3.1 c-1.8-1.9-4.5-3.1-7.8-3.1c-7.3,0-12.6,5.7-12.6,13.6c0,7.9,5.3,13.6,12.6,13.6c0,0,0.1,0,0.1,0c0,0,0.1,0,0.1,0 c3.5,0,6.6-1.3,8.8-3.6c1.1,1.8,3,3.1,5.2,3.5c0.2,0,0.4,0.1,0.6,0.1c0,0,0,0,0,0c0,0,0,0,0,0c1.9,0,3.4-1.5,3.4-3.4 C133.9,53.6,133.2,52.6,132.2,52z M116.9,51.9c-3.9,0-6.7-3-6.7-7.2c0-4.2,2.8-7.2,6.7-7.2c3.9,0,6.6,2.9,6.6,7.2 C123.5,49,120.9,51.9,116.9,51.9z" data-color-group="1"/><path fill="#231F20" d="M163.6,34.7c0-2.1-1.5-3.6-3.5-3.6c-1.8,0-3.3,1.4-3.5,3.3c-1.8-2.1-4.6-3.3-7.9-3.3 c-7.3,0-12.6,5.7-12.6,13.6s5.3,13.6,12.6,13.6c3.3,0,6-1.1,7.8-3.2l0,0.8c0,4.2-2.7,7.1-6.6,7.1c-1.7,0-3.2-0.5-4.4-1.5 c-0.4-0.4-0.8-0.8-1.2-1.3c-1.1-1.6-3.3-2.1-4.9-1c-1.6,1.1-2.1,3.3-1,4.9c0.7,1,1.5,2,2.4,2.8c2.5,2.1,5.6,3.3,9,3.3 c7.8,0,13.5-5.9,13.7-14l0-1.5c0,0,0,0,0,0V34.7z M150,51.9c-3.9,0-6.7-3-6.7-7.2s2.8-7.2,6.7-7.2s6.6,2.9,6.6,7.2 S154,51.9,150,51.9z" data-color-group="1"/></g></g></svg>