<svg version="1.0" id="Layer_1" xmlns="http://www.w3.org/2000/svg" xmlns:xlink="http://www.w3.org/1999/xlink" x="0px" y="0px" viewBox="0 0 593.6 218.1" enable-background="new 0 0 593.6 218.1" xml:space="preserve" width="100%" height="100%" preserveAspectRatio="none"><g><g><path fill="#FFFFFF" d="M126.9,29.2c-7.4-1.5-15.2,2-19.1,8.4c-0.9,1.5-1.6,3.2-2,4.9c-1.7-6.6-7.2-12-14-13.3 c-7.4-1.5-15.2,2-19.1,8.4c-0.9,1.5-1.6,3.2-2,4.9c-1.7-6.6-7.2-12-14-13.3c-7.4-1.5-15.2,2-19.1,8.4c-3.9,6.5-3.3,15,1.5,20.9 c4.8,5.9,13,8.1,20.2,5.6c5.7-2.1,10-6.9,11.4-12.6c0.6,2.6,1.8,5,3.5,7.1c4.8,5.9,13,8.1,20.2,5.6c5.7-2,10-6.9,11.4-12.6 c0.6,2.6,1.8,5,3.5,7.1c4.8,5.9,13,8.1,20.2,5.6c7.1-2.6,12-9.5,12-17.1C141.5,38.5,135.3,30.9,126.9,29.2z" data-color-group="0"/><path fill="#FFFFFF" d="M68.9,117.4c1.8,7.9,6.6,15.3,14.8,17.5c7.8,2.1,16.5-1.3,20.6-8.4c2.4-4.3,2.1-9.1,2.1-13.8 c0-3.2,0-6.3,0-9.5c0-3.5,0-7,0-10.5c0-4.5-0.1-8.8,2.1-12.9c3.1-5.6,9.2-9.1,15.6-8.8c6.5,0.3,12.3,4.3,14.9,10.2 c1.7,3.9,1.4,8.2,1.4,12.4c0,3.5,0,6.9,0,10.4c0,7.5,0.5,15.3-1,22.6c-3.4,17-15.2,31.9-31.2,38.7c-16,6.8-34.9,5-49.3-4.7 c-7.1-4.8-13-11.4-16.8-19.1c-3.8-7.6-6.1-17-4.7-25.5c1.1-6.3,6.1-11.5,12.4-12.8c6.5-1.3,13.4,1.7,16.8,7.4 C67.8,112.8,68.4,115.1,68.9,117.4z" data-color-group="0"/></g><g><line fill="#FFFFFF" x1="379.2" y1="96.1" x2="379.2" y2="96.1" data-color-group="0"/><line opacity="0.63" fill="#FFFFFF" x1="379.3" y1="96.4" x2="379.3" y2="96.4" data-color-group="0"/><path fill="#FFFFFF" d="M571.8,116.2c0,23.1-19,41.6-42.9,41.6c-23.8,0-42.4-18.3-42.4-41.6s18.6-41.5,42.6-41.5 C552.8,74.8,571.8,93.1,571.8,116.2z M508.5,116.4c0,12.5,8.7,21.5,20.6,21.5c11.7,0,20.6-9.2,20.6-21.5 c0-12.5-8.8-21.9-20.6-21.9C517.1,94.6,508.5,103.7,508.5,116.4z" data-color-group="0"/><path fill="#FFFFFF" d="M228.6,131.9c4,2.3,7.9,4.7,12.8,4.4c4.6-0.3,8.9-2.7,11.5-6.5c2.5-3.5,2.4-7.6,2.4-11.7 c0-6.9,0-54.3,0-57.7c0-2.4-0.1-4.7,0.8-7c2.7-6.7,11.5-8.9,17.1-4.2c3,2.5,3.8,6,3.8,9.7c0,7.5,0.2,59-0.1,64.2 c-0.5,9.2-4.7,18.2-11.3,24.6c-6.8,6.7-16.2,10.4-25.7,10.4c-9.1,0-18.8-3.5-24.8-10.7c-2.4-2.9-3.8-6.3-2.9-10 c0.9-3.6,3.8-6.5,7.5-7.4C223,129.2,225.8,130.3,228.6,131.9z" data-color-group="0"/><path fill="#FFFFFF" d="M378.9,138.5L378.9,138.5c-3.3-2-5.4-5.6-5.4-9.5l0-43.4c0-6-4.9-10.8-10.8-10.8c-5.5,0-10,4.1-10.7,9.4 c-5.5-5.9-13.8-9.4-23.7-9.4c-22.3,0-38.6,17.5-38.6,41.6c0,24.1,16.2,41.6,38.6,41.6c0.1,0,0.2,0,0.3,0c0.1,0,0.2,0,0.3,0 c10.7,0,20-4,26.8-10.9c3.5,5.4,9.1,9.3,15.7,10.5c0.7,0.1,1.3,0.2,1.9,0.2c0,0,0.1,0,0.1,0c0.1,0,0.1,0,0.2,0 c5.7,0,10.4-4.7,10.4-10.4C383.9,143.7,381.9,140.4,378.9,138.5z M332.2,138.3c-12.1,0-20.6-9.2-20.6-21.9c0-12.7,8.7-22,20.6-22 c11.9,0,20.1,9,20.1,22C352.3,129.4,344.2,138.3,332.2,138.3z" data-color-group="0"/><path fill="#FFFFFF" d="M474.6,85.7c0-6.3-4.5-10.9-10.6-10.9c-5.6,0-10.1,4.2-10.6,10c-5.5-6.3-14-10-24.3-10 c-22.3,0-38.6,17.5-38.6,41.6s16.2,41.6,38.6,41.6c10,0,18.3-3.5,23.8-9.6l0,2.6c-0.1,13-8.1,21.7-20.1,21.7 c-5.1,0-9.7-1.6-13.3-4.7c-1.3-1.1-2.5-2.5-3.5-4c-3.3-5-10.1-6.3-15-3c-5,3.3-6.3,10.1-3,15c2.1,3.2,4.6,6,7.5,8.4 c7.6,6.5,17.1,9.9,27.4,9.9c23.9,0,41.4-17.9,41.8-42.7l0-4.7c0,0,0,0,0,0V85.7z M433.2,138.3c-12.1,0-20.6-9.2-20.6-21.9 s8.7-22,20.6-22s20.1,9,20.1,22S445.2,138.3,433.2,138.3z" data-color-group="0"/></g></g></svg>