<svg xmlns="http://www.w3.org/2000/svg" width="60" height="60" viewBox="0 0 60 60"><defs><style>.a{fill:none;}.b{fill:#25d366;}.c{fill:#fff;}</style></defs><rect class="a" width="60" height="60"/><g transform="translate(7.553 7.553)"><circle class="b" cx="22.447" cy="22.447" r="22.447"/><path class="c" d="M28.038,10.62A12.227,12.227,0,0,0,7.124,19.382,12.029,12.029,0,0,0,8.757,25.5L7,31.758l6.509-1.708a12.375,12.375,0,0,0,5.866,1.485h0A12.178,12.178,0,0,0,28.038,10.62ZM19.375,29.456a10.049,10.049,0,0,1-5.2-1.411l-.371-.223L9.97,28.837l1.015-3.762-.248-.371a10.308,10.308,0,1,1,8.638,4.7Zm5.569-7.6c-.3-.149-1.807-.891-2.079-.99s-.5-.149-.693.149-.792.99-.965,1.213-.371.223-.668,0a8.267,8.267,0,0,1-4.158-3.638c-.322-.545.3-.5.891-1.683a.545.545,0,0,0,0-.52l-.941-2.277c-.248-.594-.52-.52-.693-.52h-.594a1.114,1.114,0,0,0-.817.4,3.44,3.44,0,0,0-1.064,2.475A5.99,5.99,0,0,0,14.4,19.63a14.108,14.108,0,0,0,5.222,4.7,5.891,5.891,0,0,0,3.663.767,3.242,3.242,0,0,0,2.079-1.46,2.648,2.648,0,0,0,.173-1.46C25.464,22.055,25.266,21.981,24.944,21.857Z" transform="translate(3.071 3.064)"/></g></svg>