<svg xmlns="http://www.w3.org/2000/svg" width="97.095" height="16.034" viewBox="0 0 97.095 16.034"><defs><style>.a{fill:#ed2126;}.b,.c{fill:#14171a;}.c{fill-rule:evenodd;}</style></defs><path class="a" d="M3.717-96.675,2.1-97.612a.32.32,0,0,0-.321,0L.16-96.675A.32.32,0,0,0,0-96.4V-82.88a.321.321,0,0,0,.16.277l1.618.938a.321.321,0,0,0,.321,0L3.717-82.6a.32.32,0,0,0,.16-.277V-96.4a.32.32,0,0,0-.16-.277" transform="translate(0 97.655)"/><path class="a" d="M142.764-96.675l-1.618-.938a.32.32,0,0,0-.321,0l-1.618.938a.32.32,0,0,0-.16.277v7.247l-5.568-7.291-.113-.151a.317.317,0,0,0-.1-.081h0c-.016-.01-.034-.022-.056-.034l-.007,0-1.553-.9a.32.32,0,0,0-.321,0l-1.618.938a.32.32,0,0,0-.16.277V-82.88a.321.321,0,0,0,.16.277l1.618.938a.32.32,0,0,0,.321,0l1.618-.938a.32.32,0,0,0,.16-.277v-7.24l5.709,7.475.009,0a.314.314,0,0,0,.061.047l1.618.938a.32.32,0,0,0,.321,0l1.618-.938a.321.321,0,0,0,.16-.277V-96.4a.32.32,0,0,0-.16-.277" transform="translate(-108.28 97.655)"/><path class="a" d="M45.024-88.487a3.605,3.605,0,0,1-3.605,3.605H39.25V-94.4h2.169a3.605,3.605,0,0,1,3.605,3.6ZM42.49-97.655H37.312a.319.319,0,0,0-.161.043l-1.618.938a.32.32,0,0,0-.16.277V-82.88a.321.321,0,0,0,.16.277l1.618.938a.322.322,0,0,0,.18.042H42.49A6.409,6.409,0,0,0,48.9-88.032v-3.215a6.409,6.409,0,0,0-6.409-6.409" transform="translate(-29.566 97.655)"/><path class="b" d="M262.344-87.839H258.2v-2.177h10.692v2.177H264.75V-76.5h-2.406Z" transform="translate(-215.807 91.271)"/><path class="c" d="M335.23-76.5h2.406V-90.017H335.23Z" transform="translate(-280.188 91.271)"/><path class="b" d="M364.858-90.017h3.666l3.609,9.47,3.646-9.47h3.627V-76.5h-2.291V-87.725h-.038L372.972-76.5h-1.68l-4.1-11.226h-.038V-76.5h-2.292Z" transform="translate(-304.952 91.271)"/><path class="b" d="M468.79-90.017h8.954v2.177H471.2v3.322H477.4v2.176H471.2v3.665h6.893V-76.5h-9.3Z" transform="translate(-391.819 91.271)"/><path class="b" d="M541.8-88.863a2.22,2.22,0,0,0-1.021-.811,3.562,3.562,0,0,0-1.346-.258,3.41,3.41,0,0,0-.811.1,2.223,2.223,0,0,0-.707.305,1.591,1.591,0,0,0-.505.543,1.571,1.571,0,0,0-.191.793,1.238,1.238,0,0,0,.478,1.05,4.669,4.669,0,0,0,1.183.63q.7.267,1.547.516a6.33,6.33,0,0,1,1.547.687,3.844,3.844,0,0,1,1.183,1.164,3.469,3.469,0,0,1,.477,1.93,4.233,4.233,0,0,1-.4,1.9,3.869,3.869,0,0,1-1.078,1.346,4.683,4.683,0,0,1-1.575.8,6.594,6.594,0,0,1-1.89.267,7.093,7.093,0,0,1-2.425-.42,4.667,4.667,0,0,1-2-1.413l1.814-1.756a3.035,3.035,0,0,0,1.156,1.039,3.238,3.238,0,0,0,1.518.373,3.176,3.176,0,0,0,.84-.115,2.588,2.588,0,0,0,.763-.344,1.8,1.8,0,0,0,.554-.582,1.56,1.56,0,0,0,.209-.811,1.414,1.414,0,0,0-.477-1.146,4.192,4.192,0,0,0-1.184-.677q-.706-.278-1.546-.526a6.51,6.51,0,0,1-1.547-.677,3.746,3.746,0,0,1-1.184-1.146,3.415,3.415,0,0,1-.477-1.918,3.638,3.638,0,0,1,.429-1.814,3.932,3.932,0,0,1,1.127-1.27,4.9,4.9,0,0,1,1.594-.755,6.853,6.853,0,0,1,1.832-.248,6.7,6.7,0,0,1,2.072.324,4.818,4.818,0,0,1,1.8,1.069Z" transform="translate(-446.538 93.019)"/></svg>