<svg version="1.1" id="Layer_1" xmlns="http://www.w3.org/2000/svg" xmlns:xlink="http://www.w3.org/1999/xlink" x="0px" y="0px" viewBox="0 0 605.35 108.17" style="enable-background:new 0 0 605.35 108.17;" xml:space="preserve" width="100%" height="100%" preserveAspectRatio="none"><style type="text/css"> .st0{fill:#A41AAB;} .st1{fill:#9B009B;} .st2{fill:#FFFFFF;} </style><g><g><g><path class="st0" d="M551.27,105.87H54.08c-28.6,0-51.79-23.19-51.79-51.79v0C2.3,25.48,25.48,2.3,54.08,2.3h497.19 c28.6,0,51.79,23.19,51.79,51.79v0C603.06,82.68,579.87,105.87,551.27,105.87z"/></g><g><path class="st1" d="M551.27,97.24H54.08c-27.15,0-49.4-20.89-51.59-47.47c-0.12,1.42-0.19,2.86-0.19,4.32v0 c0,28.6,23.19,51.79,51.79,51.79h497.19c28.6,0,51.79-23.19,51.79-51.79v0c0-1.45-0.08-2.89-0.19-4.32 C600.67,76.35,578.42,97.24,551.27,97.24z"/></g><g><path class="st2" d="M551.27,2.3H54.08C25.48,2.3,2.3,25.48,2.3,54.08v0c0,1.45,0.08,2.89,0.19,4.32 c2.19-26.58,24.45-47.47,51.59-47.47h497.19c27.15,0,49.4,20.89,51.59,47.47c0.12-1.42,0.19-2.86,0.19-4.32v0 C603.06,25.48,579.87,2.3,551.27,2.3z"/></g><g><path d="M551.27,108.17H54.08C24.26,108.17,0,83.9,0,54.08S24.26,0,54.08,0h497.19c29.82,0,54.08,24.26,54.08,54.08 S581.09,108.17,551.27,108.17z M54.08,4.59c-27.29,0-49.49,22.2-49.49,49.49s22.2,49.49,49.49,49.49h497.19 c27.29,0,49.49-22.2,49.49-49.49s-22.2-49.49-49.49-49.49H54.08z"/></g></g><g><path class="st2" d="M171.41,30.36h13.9c2.85,0,5.5,0.53,7.95,1.58c2.46,1.06,4.61,2.51,6.47,4.37c1.85,1.85,3.31,4.01,4.36,6.47 c1.06,2.46,1.58,5.11,1.58,7.95s-0.53,5.5-1.58,7.95c-1.06,2.46-2.51,4.61-4.36,6.47c-1.85,1.85-4.01,3.31-6.47,4.36 c-2.46,1.06-5.11,1.58-7.95,1.58h-13.9V30.36z M185.31,62.04c1.55,0,3-0.29,4.33-0.87c1.34-0.58,2.5-1.37,3.49-2.36 c0.99-0.99,1.77-2.18,2.33-3.56c0.56-1.38,0.84-2.89,0.84-4.53c0-1.59-0.28-3.09-0.84-4.49c-0.56-1.4-1.34-2.6-2.33-3.59 c-0.99-0.99-2.16-1.78-3.49-2.36c-1.34-0.58-2.78-0.87-4.33-0.87h-4.53v22.63H185.31z"/><path class="st2" d="M209.56,56.22c0-2.2,0.4-4.24,1.2-6.11c0.8-1.88,1.89-3.51,3.27-4.91c1.38-1.4,2.98-2.5,4.82-3.3 c1.83-0.8,3.8-1.2,5.92-1.2c2.11,0,4.08,0.4,5.92,1.2c1.83,0.8,3.44,1.9,4.82,3.3c1.38,1.4,2.47,3.04,3.27,4.91 c0.8,1.88,1.2,3.91,1.2,6.11s-0.4,4.24-1.2,6.11c-0.8,1.88-1.89,3.51-3.27,4.91c-1.38,1.4-2.99,2.5-4.82,3.3 c-1.83,0.8-3.81,1.2-5.92,1.2c-2.11,0-4.08-0.4-5.92-1.2c-1.83-0.8-3.44-1.9-4.82-3.3c-1.38-1.4-2.47-3.04-3.27-4.91 C209.96,60.46,209.56,58.42,209.56,56.22z M231.22,56.22c0-2.28-0.63-4.1-1.88-5.43c-1.25-1.34-2.78-2-4.59-2 c-1.81,0-3.34,0.67-4.59,2c-1.25,1.34-1.88,3.15-1.88,5.43c0,2.29,0.62,4.1,1.88,5.43c1.25,1.34,2.78,2,4.59,2 c1.81,0,3.34-0.67,4.59-2C230.6,60.32,231.22,58.51,231.22,56.22z"/><path class="st2" d="M264.53,54.61l-5.17,16.49h-7.44l-10.02-29.75h9.05l5.17,17.46l5.5-17.46h5.82l5.5,17.46l5.17-17.46h9.05 L277.14,71.1h-7.44L264.53,54.61z"/><path class="st2" d="M306.88,41.03c1.77,0,3.38,0.29,4.85,0.87c1.46,0.58,2.73,1.42,3.78,2.52c1.06,1.1,1.88,2.43,2.46,3.98 c0.58,1.55,0.87,3.3,0.87,5.24V71.1h-8.73V55.25c0-1.94-0.51-3.45-1.52-4.53c-1.01-1.08-2.34-1.62-3.98-1.62 c-1.64,0-2.96,0.54-3.98,1.62c-1.01,1.08-1.52,2.59-1.52,4.53V71.1h-8.73V41.35h6.47l1.29,2.91c0.69-0.6,1.49-1.14,2.39-1.62 c0.78-0.39,1.7-0.75,2.78-1.1C304.4,41.2,305.59,41.03,306.88,41.03z"/><path class="st2" d="M333.72,71.1h-8.73V30.36h8.73V71.1z"/><path class="st2" d="M338.89,56.22c0-2.2,0.4-4.24,1.2-6.11c0.8-1.88,1.89-3.51,3.27-4.91c1.38-1.4,2.98-2.5,4.82-3.3 c1.83-0.8,3.8-1.2,5.92-1.2c2.11,0,4.08,0.4,5.92,1.2c1.83,0.8,3.44,1.9,4.82,3.3c1.38,1.4,2.47,3.04,3.27,4.91 c0.8,1.88,1.2,3.91,1.2,6.11s-0.4,4.24-1.2,6.11c-0.8,1.88-1.89,3.51-3.27,4.91c-1.38,1.4-2.99,2.5-4.82,3.3 c-1.83,0.8-3.81,1.2-5.92,1.2c-2.11,0-4.08-0.4-5.92-1.2c-1.83-0.8-3.44-1.9-4.82-3.3c-1.38-1.4-2.47-3.04-3.27-4.91 C339.29,60.46,338.89,58.42,338.89,56.22z M360.55,56.22c0-2.28-0.63-4.1-1.88-5.43c-1.25-1.34-2.78-2-4.59-2 c-1.81,0-3.34,0.67-4.59,2c-1.25,1.34-1.88,3.15-1.88,5.43c0,2.29,0.62,4.1,1.88,5.43c1.25,1.34,2.78,2,4.59,2 c1.81,0,3.34-0.67,4.59-2C359.93,60.32,360.55,58.51,360.55,56.22z"/><path class="st2" d="M387.39,40.7c1.77,0,3.4,0.3,4.91,0.91c1.51,0.6,2.81,1.46,3.91,2.55c1.1,1.1,1.95,2.4,2.55,3.91 c0.6,1.51,0.91,3.15,0.91,4.91V71.1h-6.47l-1.29-2.91c-0.73,0.6-1.55,1.14-2.46,1.62c-0.78,0.43-1.69,0.81-2.75,1.13 c-1.06,0.32-2.23,0.48-3.52,0.48c-3.23,0-5.71-0.79-7.44-2.36c-1.72-1.57-2.59-3.59-2.59-6.05c0-1.47,0.29-2.81,0.87-4.04 c0.58-1.23,1.56-2.28,2.94-3.17c1.38-0.88,3.2-1.57,5.46-2.07c2.26-0.5,5.1-0.74,8.5-0.74c0-1.46-0.37-2.59-1.1-3.36 c-0.73-0.78-1.66-1.16-2.78-1.16c-0.82,0-1.48,0.16-1.97,0.48c-0.5,0.32-0.9,0.66-1.2,1c-0.35,0.43-0.58,0.91-0.71,1.42 l-8.73-0.65c0.26-1.47,0.71-2.81,1.36-4.04c0.65-1.23,1.5-2.28,2.55-3.17c1.06-0.88,2.34-1.57,3.85-2.07 C383.72,40.95,385.45,40.7,387.39,40.7z M385.45,64.95c1.64,0,2.96-0.51,3.98-1.52c1.01-1.01,1.52-2.34,1.52-3.98v-1.29 c-1.85,0-3.37,0.1-4.56,0.29c-1.19,0.19-2.11,0.46-2.78,0.81c-0.67,0.35-1.12,0.75-1.36,1.23c-0.24,0.47-0.36,0.99-0.36,1.55 c0,0.82,0.31,1.51,0.94,2.07C383.45,64.67,384.33,64.95,385.45,64.95z"/><path class="st2" d="M418.43,71.42c-1.85,0-3.62-0.38-5.3-1.13c-1.68-0.75-3.16-1.81-4.43-3.17c-1.27-1.36-2.29-2.96-3.04-4.82 c-0.75-1.85-1.13-3.88-1.13-6.08s0.38-4.22,1.13-6.08c0.75-1.85,1.77-3.46,3.04-4.82c1.27-1.36,2.75-2.41,4.43-3.17 c1.68-0.75,3.45-1.13,5.3-1.13c1.12,0,2.14,0.13,3.07,0.39c0.93,0.26,1.71,0.56,2.36,0.91c0.78,0.39,1.44,0.82,2,1.29V30.36h8.73 V71.1h-6.47l-1.29-2.91c-0.69,0.6-1.44,1.14-2.26,1.62c-0.73,0.43-1.62,0.81-2.65,1.13S419.72,71.42,418.43,71.42z M413.25,56.22 c0,2.11,0.62,3.83,1.88,5.14c1.25,1.32,2.78,1.97,4.59,1.97c1.81,0,3.34-0.66,4.59-1.97c1.25-1.31,1.88-3.03,1.88-5.14 c0-2.11-0.63-3.83-1.88-5.14c-1.25-1.31-2.78-1.97-4.59-1.97c-1.81,0-3.34,0.66-4.59,1.97C413.88,52.4,413.25,54.11,413.25,56.22z "/></g></g></svg>