<?xml version="1.0" encoding="utf-8"?>
<!-- Generator: Adobe Illustrator 16.0.0, SVG Export Plug-In . SVG Version: 6.00 Build 0)  -->
<!DOCTYPE svg PUBLIC "-//W3C//DTD SVG 1.1//EN" "http://www.w3.org/Graphics/SVG/1.1/DTD/svg11.dtd">
<svg version="1.1" id="Layer_1" xmlns="http://www.w3.org/2000/svg" xmlns:xlink="http://www.w3.org/1999/xlink" x="0px" y="0px"
	 width="233.761px" height="44.382px" viewBox="0 0 233.761 44.382" enable-background="new 0 0 233.761 44.382"
	 xml:space="preserve">
<g>
	<path fill-rule="evenodd" clip-rule="evenodd" fill="#9C80D7" d="M12.046,7.779c0.652,0,1.267,0.125,1.845,0.378
		c0.577,0.251,1.073,0.592,1.489,1.022c0.414,0.43,0.748,0.934,1,1.511s0.377,1.193,0.377,1.845s-0.125,1.259-0.377,1.822
		c-0.252,0.563-0.586,1.06-1,1.489c-0.416,0.43-0.912,0.771-1.489,1.022c-0.578,0.251-1.192,0.377-1.845,0.377H7.778V7.779H12.046
		L12.046,7.779z M0,30.003c0,1.097,0.378,2.022,1.134,2.778s1.667,1.134,2.733,1.134c1.097,0,2.022-0.378,2.778-1.134
		s1.133-1.682,1.133-2.778v-5.556h4.846c1.63,0,3.17-0.312,4.623-0.934c1.451-0.622,2.719-1.474,3.8-2.556
		c1.081-1.082,1.934-2.341,2.556-3.778c0.622-1.438,0.934-2.986,0.934-4.645c0-1.66-0.312-3.215-0.934-4.667
		c-0.622-1.452-1.475-2.719-2.556-3.8c-1.081-1.082-2.349-1.934-3.8-2.556c-1.453-0.622-2.993-0.933-4.623-0.933H3.867
		c-1.066,0-1.978,0.377-2.733,1.133S0,3.378,0,4.445V30.003L0,30.003z M43.516,34.492c2.37,0,4.608-0.452,6.712-1.355
		s3.934-2.134,5.489-3.689s2.786-3.385,3.689-5.489c0.903-2.104,1.356-4.341,1.356-6.712s-0.453-4.608-1.356-6.711
		c-0.903-2.104-2.134-3.934-3.689-5.489c-1.556-1.556-3.386-2.786-5.489-3.689S45.886,0,43.516,0s-4.601,0.452-6.689,1.356
		s-3.911,2.133-5.468,3.689c-1.555,1.555-2.785,3.385-3.689,5.489c-0.903,2.104-1.355,4.341-1.355,6.711s0.452,4.608,1.355,6.712
		c0.904,2.104,2.135,3.934,3.689,5.489c1.557,1.556,3.379,2.786,5.468,3.689S41.146,34.492,43.516,34.492L43.516,34.492z
		 M34.093,17.246c0-1.304,0.244-2.526,0.732-3.667c0.49-1.141,1.164-2.141,2.023-3c0.859-0.859,1.859-1.541,3-2.045
		c1.141-0.503,2.363-0.755,3.667-0.755s2.534,0.252,3.689,0.755c1.155,0.504,2.163,1.186,3.022,2.045
		c0.859,0.859,1.533,1.859,2.022,3c0.489,1.141,0.733,2.363,0.733,3.667s-0.244,2.526-0.733,3.667
		c-0.489,1.141-1.163,2.142-2.022,3.001c-0.859,0.858-1.867,1.533-3.022,2.021c-1.155,0.489-2.386,0.734-3.689,0.734
		s-2.526-0.245-3.667-0.734c-1.141-0.488-2.141-1.163-3-2.021c-0.859-0.859-1.533-1.86-2.023-3.001
		C34.337,19.772,34.093,18.55,34.093,17.246L34.093,17.246z M75.741,7.779c0.652,0,1.267,0.125,1.845,0.378
		c0.577,0.251,1.073,0.592,1.489,1.022c0.414,0.43,0.748,0.934,1,1.511s0.377,1.193,0.377,1.845s-0.125,1.259-0.377,1.822
		c-0.252,0.563-0.586,1.06-1,1.489c-0.416,0.43-0.912,0.771-1.489,1.022c-0.578,0.251-1.192,0.377-1.845,0.377h-4.268V7.779H75.741
		L75.741,7.779z M63.695,30.003c0,1.097,0.378,2.022,1.134,2.778s1.667,1.134,2.733,1.134c1.097,0,2.022-0.378,2.778-1.134
		s1.133-1.682,1.133-2.778v-5.556h4.846c1.63,0,3.17-0.312,4.623-0.934c1.451-0.622,2.719-1.474,3.8-2.556
		c1.081-1.082,1.934-2.341,2.556-3.778c0.622-1.438,0.934-2.986,0.934-4.645c0-1.66-0.312-3.215-0.934-4.667
		c-0.622-1.452-1.475-2.719-2.556-3.8c-1.081-1.082-2.349-1.934-3.8-2.556c-1.453-0.622-2.993-0.933-4.623-0.933h-8.757
		c-1.066,0-1.978,0.377-2.733,1.133s-1.134,1.667-1.134,2.734V30.003L63.695,30.003z M121.79,3.512
		c-0.237-0.859-0.674-1.563-1.311-2.112c-0.638-0.548-1.445-0.822-2.423-0.822c-0.771,0-1.497,0.237-2.179,0.711
		c-0.681,0.474-1.17,1.096-1.466,1.867l-5.245,14.401l-5.245-14.401c-0.296-0.771-0.786-1.393-1.467-1.867
		c-0.682-0.474-1.407-0.711-2.179-0.711c-0.977,0-1.785,0.274-2.422,0.822c-0.637,0.548-1.074,1.252-1.311,2.112l-6.401,25.603
		c-0.089,0.326-0.134,0.637-0.134,0.934c0,0.533,0.104,1.029,0.312,1.488c0.208,0.46,0.481,0.867,0.823,1.223
		c0.34,0.355,0.747,0.638,1.222,0.845c0.474,0.207,0.978,0.312,1.511,0.312c0.859,0,1.645-0.274,2.355-0.822
		c0.712-0.549,1.186-1.253,1.424-2.111l3.333-13.202l4.934,13.602c0.267,0.771,0.675,1.386,1.223,1.845s1.222,0.689,2.022,0.689
		c0.8,0,1.475-0.23,2.021-0.689c0.549-0.459,0.957-1.074,1.223-1.845l4.935-13.602l3.289,13.202
		c0.237,0.858,0.719,1.563,1.444,2.111c0.727,0.548,1.519,0.822,2.378,0.822c0.682,0,1.26-0.126,1.733-0.378
		c0.475-0.252,0.867-0.578,1.179-0.979c0.311-0.399,0.54-0.821,0.688-1.267c0.148-0.444,0.222-0.874,0.222-1.289
		c0-0.148,0-0.296,0-0.444s-0.029-0.296-0.089-0.444L121.79,3.512L121.79,3.512z M145.57,11.468l4.001,9.734h-8.09L145.57,11.468
		L145.57,11.468z M153.838,31.647c0.296,0.712,0.771,1.267,1.423,1.667c0.651,0.4,1.348,0.601,2.089,0.601
		c1.066,0,1.971-0.371,2.711-1.111c0.741-0.741,1.111-1.66,1.111-2.756c0-0.534-0.104-1.052-0.311-1.556L149.26,2.4
		c-0.682-1.6-1.911-2.4-3.689-2.4c-1.719,0-2.948,0.8-3.689,2.4l-11.823,26.092c-0.237,0.533-0.355,1.052-0.355,1.556
		c0,0.711,0.134,1.312,0.4,1.8c0.267,0.489,0.593,0.89,0.978,1.2c0.386,0.312,0.8,0.533,1.244,0.667c0.445,0.133,0.845,0.2,1.2,0.2
		c0.741,0,1.438-0.2,2.09-0.601c0.651-0.4,1.126-0.955,1.422-1.667l1.601-3.778h13.646L153.838,31.647L153.838,31.647z
		 M194.375,3.512c-0.236-0.859-0.674-1.563-1.311-2.112c-0.638-0.548-1.445-0.822-2.423-0.822c-0.771,0-1.496,0.237-2.178,0.711
		s-1.171,1.096-1.467,1.867l-5.245,14.401l-5.245-14.401c-0.296-0.771-0.785-1.393-1.467-1.867s-1.407-0.711-2.178-0.711
		c-0.979,0-1.785,0.274-2.423,0.822c-0.637,0.548-1.074,1.252-1.311,2.112l-6.401,25.603c-0.089,0.326-0.133,0.637-0.133,0.934
		c0,0.533,0.104,1.029,0.311,1.488c0.208,0.46,0.481,0.867,0.822,1.223s0.748,0.638,1.223,0.845
		c0.474,0.207,0.978,0.312,1.511,0.312c0.859,0,1.646-0.274,2.356-0.822c0.711-0.549,1.185-1.253,1.422-2.111l3.334-13.202
		l4.934,13.602c0.267,0.771,0.675,1.386,1.223,1.845s1.223,0.689,2.022,0.689s1.474-0.23,2.022-0.689
		c0.548-0.459,0.956-1.074,1.222-1.845l4.935-13.602l3.289,13.202c0.237,0.858,0.719,1.563,1.444,2.111
		c0.727,0.548,1.519,0.822,2.378,0.822c0.682,0,1.26-0.126,1.733-0.378c0.475-0.252,0.867-0.578,1.179-0.979
		c0.311-0.399,0.54-0.821,0.688-1.267c0.148-0.444,0.223-0.874,0.223-1.289c0-0.148,0-0.296,0-0.444s-0.03-0.296-0.09-0.444
		L194.375,3.512L194.375,3.512z M218.155,11.468l4.001,9.734h-8.09L218.155,11.468L218.155,11.468z M226.423,31.647
		c0.297,0.712,0.771,1.267,1.423,1.667c0.651,0.4,1.348,0.601,2.089,0.601c1.066,0,1.971-0.371,2.711-1.111
		c0.741-0.741,1.111-1.66,1.111-2.756c0-0.534-0.104-1.052-0.311-1.556L221.845,2.4c-0.682-1.6-1.911-2.4-3.689-2.4
		c-1.719,0-2.948,0.8-3.688,2.4l-11.824,26.092c-0.237,0.533-0.355,1.052-0.355,1.556c0,0.711,0.134,1.312,0.4,1.8
		c0.267,0.489,0.593,0.89,0.978,1.2c0.386,0.312,0.8,0.533,1.244,0.667c0.445,0.133,0.845,0.2,1.2,0.2c0.741,0,1.438-0.2,2.09-0.601
		c0.651-0.4,1.126-0.955,1.422-1.667l1.601-3.778h13.646L226.423,31.647z"/>
	<path fill-rule="evenodd" clip-rule="evenodd" fill="#E17EB4" d="M202.772,41.339c-0.206,0-0.4,0.038-0.581,0.116
		c-0.181,0.077-0.337,0.183-0.471,0.315c-0.133,0.134-0.238,0.29-0.315,0.471s-0.116,0.374-0.116,0.58
		c0,0.207,0.039,0.4,0.116,0.581s0.183,0.337,0.315,0.471c0.134,0.133,0.29,0.238,0.471,0.315c0.181,0.078,0.375,0.116,0.581,0.116
		s0.399-0.038,0.58-0.116c0.181-0.077,0.337-0.183,0.471-0.315c0.133-0.134,0.238-0.29,0.316-0.471
		c0.077-0.181,0.115-0.374,0.115-0.581c0-0.206-0.038-0.399-0.115-0.58c-0.078-0.181-0.184-0.337-0.316-0.471
		c-0.134-0.133-0.29-0.238-0.471-0.315C203.172,41.377,202.979,41.339,202.772,41.339L202.772,41.339z M208.885,36.168
		c-0.567,0-1.101,0.107-1.599,0.322c-0.499,0.215-0.936,0.509-1.31,0.883s-0.668,0.809-0.884,1.303
		c-0.214,0.494-0.322,1.025-0.322,1.593s0.108,1.101,0.322,1.599c0.216,0.499,0.51,0.936,0.884,1.309
		c0.374,0.375,0.811,0.669,1.31,0.884c0.498,0.215,1.031,0.322,1.599,0.322c0.645,0,1.219-0.107,1.722-0.322s0.947-0.52,1.335-0.915
		c0.266-0.267,0.399-0.572,0.399-0.916c0-0.232-0.05-0.438-0.148-0.619s-0.224-0.335-0.374-0.464s-0.312-0.226-0.483-0.29
		s-0.335-0.097-0.49-0.097c-0.24,0-0.432,0.047-0.573,0.142c-0.143,0.095-0.275,0.195-0.4,0.303
		c-0.124,0.107-0.26,0.209-0.406,0.304c-0.146,0.094-0.34,0.142-0.58,0.142c-0.189,0-0.367-0.036-0.535-0.109
		s-0.313-0.173-0.438-0.297c-0.125-0.125-0.224-0.271-0.297-0.438s-0.109-0.346-0.109-0.535s0.036-0.365,0.109-0.529
		c0.073-0.163,0.172-0.307,0.297-0.432c0.125-0.124,0.271-0.224,0.438-0.297s0.346-0.109,0.535-0.109
		c0.249,0,0.445,0.047,0.587,0.142s0.275,0.196,0.399,0.304c0.125,0.107,0.256,0.208,0.394,0.303s0.331,0.142,0.58,0.142
		c0.215,0,0.415-0.047,0.6-0.142c0.186-0.095,0.344-0.213,0.478-0.354c0.133-0.142,0.236-0.301,0.31-0.478
		c0.072-0.176,0.109-0.346,0.109-0.509c0-0.155-0.032-0.31-0.097-0.465c-0.064-0.154-0.166-0.301-0.303-0.438
		c-0.388-0.396-0.832-0.7-1.335-0.915S209.529,36.168,208.885,36.168L208.885,36.168z M216.88,41.558
		c-0.361,0-0.666-0.124-0.915-0.373c-0.25-0.25-0.375-0.556-0.375-0.916c0-0.361,0.125-0.667,0.375-0.916
		c0.249-0.249,0.554-0.374,0.915-0.374s0.666,0.125,0.916,0.374c0.249,0.249,0.374,0.555,0.374,0.916
		c0,0.36-0.125,0.666-0.374,0.916C217.546,41.434,217.241,41.558,216.88,41.558L216.88,41.558z M220.916,40.269
		c0-0.55-0.105-1.07-0.315-1.561c-0.211-0.49-0.499-0.918-0.864-1.283s-0.793-0.653-1.283-0.864c-0.49-0.21-1.015-0.315-1.573-0.315
		s-1.081,0.105-1.566,0.315c-0.486,0.211-0.912,0.499-1.277,0.864s-0.653,0.793-0.863,1.283c-0.211,0.49-0.316,1.011-0.316,1.561
		c0,0.559,0.105,1.083,0.316,1.573c0.21,0.49,0.498,0.918,0.863,1.283s0.791,0.653,1.277,0.863c0.485,0.211,1.008,0.316,1.566,0.316
		s1.083-0.105,1.573-0.316c0.49-0.21,0.918-0.498,1.283-0.863s0.653-0.793,0.864-1.283
		C220.811,41.352,220.916,40.827,220.916,40.269L220.916,40.269z M225.378,36.245c-0.507,0-0.986,0.097-1.438,0.29
		s-0.845,0.458-1.18,0.793c-0.336,0.335-0.6,0.729-0.793,1.18c-0.194,0.451-0.291,0.931-0.291,1.438v2.991
		c0,0.189,0.037,0.366,0.11,0.529s0.17,0.307,0.29,0.432s0.264,0.224,0.432,0.297s0.346,0.109,0.535,0.109s0.365-0.036,0.529-0.109
		c0.163-0.073,0.307-0.172,0.432-0.297c0.124-0.125,0.224-0.269,0.297-0.432s0.109-0.34,0.109-0.529v-2.991
		c0-0.267,0.095-0.495,0.284-0.684c0.188-0.189,0.417-0.284,0.683-0.284c0.267,0,0.495,0.095,0.684,0.284
		c0.189,0.188,0.284,0.417,0.284,0.684v2.991c0,0.189,0.036,0.366,0.109,0.529s0.172,0.307,0.297,0.432
		c0.124,0.125,0.269,0.224,0.432,0.297s0.34,0.109,0.528,0.109c0.189,0,0.368-0.036,0.536-0.109
		c0.167-0.073,0.311-0.172,0.432-0.297c0.12-0.125,0.217-0.269,0.29-0.432s0.109-0.34,0.109-0.529v-2.991
		c0-0.267,0.095-0.495,0.284-0.684c0.188-0.189,0.421-0.284,0.696-0.284c0.267,0,0.494,0.095,0.684,0.284
		c0.188,0.188,0.283,0.417,0.283,0.684v2.991c0,0.189,0.037,0.366,0.109,0.529c0.073,0.163,0.17,0.307,0.291,0.432
		c0.12,0.125,0.264,0.224,0.432,0.297c0.167,0.073,0.346,0.109,0.535,0.109s0.365-0.036,0.528-0.109
		c0.164-0.073,0.308-0.172,0.433-0.297c0.124-0.125,0.224-0.269,0.296-0.432c0.073-0.163,0.11-0.34,0.11-0.529v-2.991
		c0-0.508-0.097-0.987-0.29-1.438c-0.194-0.451-0.458-0.845-0.793-1.18c-0.336-0.335-0.729-0.6-1.181-0.793s-0.931-0.29-1.438-0.29
		c-0.49,0-0.933,0.081-1.328,0.245c-0.396,0.163-0.735,0.36-1.02,0.593c-0.274-0.232-0.609-0.43-1.006-0.593
		C226.311,36.326,225.868,36.245,225.378,36.245z"/>
</g>
</svg>
