<svg width="196" height="39" viewBox="0 0 196 39" fill="none" xmlns="http://www.w3.org/2000/svg">
<path d="M13.631 11.716C14.2617 11.716 14.8493 11.845 15.394 12.103C15.9673 12.3323 16.4547 12.662 16.856 13.092C17.2573 13.4933 17.5727 13.9807 17.802 14.554C18.06 15.0987 18.189 15.6863 18.189 16.317C18.189 16.9477 18.06 17.5353 17.802 18.08C17.5727 18.6247 17.2573 19.112 16.856 19.542C16.4547 19.9433 15.9673 20.273 15.394 20.531C14.8493 20.7603 14.2617 20.875 13.631 20.875H9.503V11.716H13.631ZM1.978 33.216C1.978 34.2767 2.33633 35.1797 3.053 35.925C3.79833 36.6417 4.687 37 5.719 37C6.77967 37 7.66833 36.6417 8.385 35.925C9.13033 35.1797 9.503 34.2767 9.503 33.216V27.841H14.19C15.7667 27.841 17.2573 27.54 18.662 26.938C20.0667 26.336 21.285 25.519 22.317 24.487C23.3777 23.4263 24.209 22.208 24.811 20.832C25.413 19.4273 25.714 17.9223 25.714 16.317C25.714 14.7117 25.413 13.2067 24.811 11.802C24.209 10.3973 23.3777 9.179 22.317 8.147C21.285 7.08633 20.0667 6.255 18.662 5.653C17.2573 5.051 15.7667 4.75 14.19 4.75H5.719C4.687 4.75 3.79833 5.12266 3.053 5.868C2.33633 6.58466 1.978 7.459 1.978 8.491V33.216ZM44.0821 37.559C46.3754 37.559 48.5397 37.129 50.5751 36.269C52.6104 35.3803 54.3734 34.1907 55.8641 32.7C57.3834 31.1807 58.5731 29.4033 59.4331 27.368C60.3217 25.3327 60.7661 23.1683 60.7661 20.875C60.7661 18.5817 60.3217 16.4173 59.4331 14.382C58.5731 12.3467 57.3834 10.5837 55.8641 9.093C54.3734 7.57367 52.6104 6.384 50.5751 5.524C48.5397 4.63533 46.3754 4.191 44.0821 4.191C41.7887 4.191 39.6244 4.63533 37.5891 5.524C35.5824 6.384 33.8194 7.57367 32.3001 9.093C30.8094 10.5837 29.6197 12.3467 28.7311 14.382C27.8711 16.4173 27.4411 18.5817 27.4411 20.875C27.4411 23.1683 27.8711 25.3327 28.7311 27.368C29.6197 29.4033 30.8094 31.1807 32.3001 32.7C33.8194 34.1907 35.5824 35.3803 37.5891 36.269C39.6244 37.129 41.7887 37.559 44.0821 37.559ZM34.9661 20.875C34.9661 19.6137 35.1954 18.4383 35.6541 17.349C36.1414 16.231 36.8007 15.2563 37.6321 14.425C38.4634 13.5937 39.4237 12.9343 40.5131 12.447C41.6311 11.9597 42.8207 11.716 44.0821 11.716C45.3434 11.716 46.5331 11.9597 47.6511 12.447C48.7691 12.9343 49.7437 13.5937 50.5751 14.425C51.4064 15.2563 52.0514 16.231 52.5101 17.349C52.9974 18.4383 53.2411 19.6137 53.2411 20.875C53.2411 22.1363 52.9974 23.326 52.5101 24.444C52.0514 25.5333 51.4064 26.4937 50.5751 27.325C49.7437 28.1563 48.7691 28.8157 47.6511 29.303C46.5331 29.7617 45.3434 29.991 44.0821 29.991C42.8207 29.991 41.6311 29.7617 40.5131 29.303C39.4237 28.8157 38.4634 28.1563 37.6321 27.325C36.8007 26.4937 36.1414 25.5333 35.6541 24.444C35.1954 23.326 34.9661 22.1363 34.9661 20.875ZM75.2755 11.716C75.9062 11.716 76.4939 11.845 77.0385 12.103C77.6119 12.3323 78.0992 12.662 78.5005 13.092C78.9019 13.4933 79.2172 13.9807 79.4465 14.554C79.7045 15.0987 79.8335 15.6863 79.8335 16.317C79.8335 16.9477 79.7045 17.5353 79.4465 18.08C79.2172 18.6247 78.9019 19.112 78.5005 19.542C78.0992 19.9433 77.6119 20.273 77.0385 20.531C76.4939 20.7603 75.9062 20.875 75.2755 20.875H71.1475V11.716H75.2755ZM63.6225 33.216C63.6225 34.2767 63.9809 35.1797 64.6975 35.925C65.4429 36.6417 66.3315 37 67.3635 37C68.4242 37 69.3129 36.6417 70.0295 35.925C70.7749 35.1797 71.1475 34.2767 71.1475 33.216V27.841H75.8345C77.4112 27.841 78.9019 27.54 80.3065 26.938C81.7112 26.336 82.9295 25.519 83.9615 24.487C85.0222 23.4263 85.8535 22.208 86.4555 20.832C87.0575 19.4273 87.3585 17.9223 87.3585 16.317C87.3585 14.7117 87.0575 13.2067 86.4555 11.802C85.8535 10.3973 85.0222 9.179 83.9615 8.147C82.9295 7.08633 81.7112 6.255 80.3065 5.653C78.9019 5.051 77.4112 4.75 75.8345 4.75H67.3635C66.3315 4.75 65.4429 5.12266 64.6975 5.868C63.9809 6.58466 63.6225 7.459 63.6225 8.491V33.216ZM101.857 11.716C102.487 11.716 103.075 11.845 103.62 12.103C104.193 12.3323 104.68 12.662 105.082 13.092C105.483 13.4933 105.798 13.9807 106.028 14.554C106.286 15.0987 106.415 15.6863 106.415 16.317C106.415 16.9477 106.286 17.5353 106.028 18.08C105.798 18.6247 105.483 19.112 105.082 19.542C104.68 19.9433 104.193 20.273 103.62 20.531C103.075 20.7603 102.487 20.875 101.857 20.875H97.7286V11.716H101.857ZM90.2036 33.216C90.2036 34.2767 90.5619 35.1797 91.2786 35.925C92.0239 36.6417 92.9126 37 93.9446 37C95.0053 37 95.8939 36.6417 96.6106 35.925C97.3559 35.1797 97.7286 34.2767 97.7286 33.216V27.841H102.416C103.992 27.841 105.483 27.54 106.888 26.938C108.292 26.336 109.511 25.519 110.543 24.487C111.603 23.4263 112.435 22.208 113.037 20.832C113.639 19.4273 113.94 17.9223 113.94 16.317C113.94 14.7117 113.639 13.2067 113.037 11.802C112.435 10.3973 111.603 9.179 110.543 8.147C109.511 7.08633 108.292 6.255 106.888 5.653C105.483 5.051 103.992 4.75 102.416 4.75H93.9446C92.9126 4.75 92.0239 5.12266 91.2786 5.868C90.5619 6.58466 90.2036 7.459 90.2036 8.491V33.216ZM126.39 15.285L130.26 24.702H122.434L126.39 15.285ZM134.388 34.807C134.675 35.495 135.134 36.0397 135.764 36.441C136.395 36.8137 137.069 37 137.785 37C138.817 37 139.692 36.6417 140.408 35.925C141.125 35.2083 141.483 34.3197 141.483 33.259C141.483 32.743 141.383 32.2413 141.182 31.754L129.959 6.513C129.3 4.965 128.11 4.191 126.39 4.191C124.728 4.191 123.538 4.965 122.821 6.513L111.383 31.754C111.154 32.27 111.039 32.7717 111.039 33.259C111.039 33.947 111.168 34.5347 111.426 35.022C111.684 35.4807 112 35.8677 112.372 36.183C112.745 36.4697 113.146 36.6847 113.576 36.828C114.006 36.9427 114.393 37 114.737 37C115.454 37 116.128 36.8137 116.758 36.441C117.389 36.0397 117.848 35.495 118.134 34.807L119.682 31.152H132.883L134.388 34.807ZM155.649 11.716C156.279 11.716 156.867 11.845 157.412 12.103C157.985 12.3323 158.472 12.662 158.874 13.092C159.275 13.4933 159.59 13.9807 159.82 14.554C160.078 15.0987 160.207 15.6863 160.207 16.317C160.207 16.9477 160.078 17.5353 159.82 18.08C159.59 18.6247 159.275 19.112 158.874 19.542C158.472 19.9433 157.985 20.273 157.412 20.531C156.867 20.7603 156.279 20.875 155.649 20.875H151.521V11.716H155.649ZM143.996 33.216C143.996 34.2767 144.354 35.1797 145.071 35.925C145.816 36.6417 146.705 37 147.737 37C148.797 37 149.686 36.6417 150.403 35.925C151.148 35.1797 151.521 34.2767 151.521 33.216V27.841H156.208C157.784 27.841 159.275 27.54 160.68 26.938C162.084 26.336 163.303 25.519 164.335 24.487C165.395 23.4263 166.227 22.208 166.829 20.832C167.431 19.4273 167.732 17.9223 167.732 16.317C167.732 14.7117 167.431 13.2067 166.829 11.802C166.227 10.3973 165.395 9.179 164.335 8.147C163.303 7.08633 162.084 6.255 160.68 5.653C159.275 5.051 157.784 4.75 156.208 4.75H147.737C146.705 4.75 145.816 5.12266 145.071 5.868C144.354 6.58466 143.996 7.459 143.996 8.491V33.216ZM180.182 15.285L184.052 24.702H176.226L180.182 15.285ZM188.18 34.807C188.467 35.495 188.926 36.0397 189.556 36.441C190.187 36.8137 190.861 37 191.577 37C192.609 37 193.484 36.6417 194.2 35.925C194.917 35.2083 195.275 34.3197 195.275 33.259C195.275 32.743 195.175 32.2413 194.974 31.754L183.751 6.513C183.092 4.965 181.902 4.191 180.182 4.191C178.52 4.191 177.33 4.965 176.613 6.513L165.175 31.754C164.946 32.27 164.831 32.7717 164.831 33.259C164.831 33.947 164.96 34.5347 165.218 35.022C165.476 35.4807 165.792 35.8677 166.164 36.183C166.537 36.4697 166.938 36.6847 167.368 36.828C167.798 36.9427 168.185 37 168.529 37C169.246 37 169.92 36.8137 170.55 36.441C171.181 36.0397 171.64 35.495 171.926 34.807L173.474 31.152H186.675L188.18 34.807Z" fill="#03045E"/>
</svg>
